<svg width="16" height="16" viewBox="0 0 16 16" fill="none" xmlns="http://www.w3.org/2000/svg">
<rect width="16" height="16" fill="white"/>
<path d="M6.41847 10.661C5.8743 10.9779 5.0399 11.1363 3.92595 11.1535V10.5368H4.20764C4.83077 10.5368 5.28745 10.4319 5.567 10.2285C5.84869 10.0165 5.9874 9.72747 5.9874 9.33992C5.9874 8.91812 5.85509 8.58196 5.57554 8.34429C5.30452 8.10663 4.86491 7.98244 4.26739 7.98244H3.27508V11.1513H1.22217V10.9222L2.12699 10.464V5.35741L1.22217 4.89921V4.67011H3.27508V7.43431H4.27593C4.74968 7.43431 5.08258 7.3294 5.29385 7.13455C5.49658 6.93115 5.60115 6.67635 5.60115 6.37659C5.60115 6.07683 5.50512 5.82204 5.31092 5.61007C5.11886 5.38953 4.79236 5.28462 4.31861 5.28462H3.92382V4.66797C4.77529 4.66797 5.47737 4.77288 6.01301 4.98486C6.54864 5.19683 6.81966 5.57581 6.81966 6.13893C6.81966 6.48151 6.70656 6.78983 6.48676 7.07246C6.25842 7.35509 5.84656 7.53923 5.25757 7.64414C5.77613 7.70624 6.17946 7.81972 6.46755 7.97816C6.75778 8.14517 6.96691 8.32931 7.09068 8.54984C7.21445 8.76182 7.27421 8.98021 7.27421 9.20075C7.27421 9.84309 6.99252 10.327 6.4142 10.6546L6.41847 10.661ZM14.5555 13.1124H14.3272L13.3541 11.3246H9.0455L8.06172 13.1124H7.83339V10.648H8.59736C8.8257 10.147 9.00922 9.60098 9.133 9.00146C9.2653 8.40194 9.3528 7.81313 9.40401 7.23074C9.44883 6.65906 9.47444 6.15589 9.47444 5.73409V5.53068L8.56962 5.07248V4.84338H11.7279V5.52212H10.1915V5.73409C10.1915 6.1666 10.1659 6.67619 10.1125 7.25644C10.0677 7.83668 9.98873 8.42764 9.87563 9.01645C9.75186 9.61596 9.59394 10.1512 9.38481 10.6459H12.3852V4.84338H14.4381V5.07248L13.5333 5.53068V8.08827V10.6459H14.5512V13.1103H14.5555V13.1124Z" fill="black"/>
</svg>
