<?xml version="1.0" encoding="UTF-8"?>
<svg id="Layer_2" data-name="Layer 2" xmlns="http://www.w3.org/2000/svg" viewBox="0 0 492.55 664.78">
  <g id="Layer_1-2" data-name="Layer 1">
    <g>
      <path d="M207.63,664.78c.28-2.55,2.91-1.95,2.96-4.91.1-6.9-2.53-15.38.63-21.73-3.6-2.53-.59-4.61-1.73-7.81-1.49-4.21-5.45-6.68-7.75-10.28-1.88-2.94-2.98-6.67-3.13-10.35-.08-1.84,1.11-11.37-.35-11.67-1.92-.39-1.54-.3-1.85,1.14-.27,1.24-.33,5.56-.91,6.22-1.47.51-3.72.79-4.88,1.88-3.33,3.12-3.5,9.4-4.79,13.45-.17.52-2.65,1.03-1.26,3.42.54.93,4,2.99,4.75,5.37.83,2.63-.72,4.15-.29,6.21.59,2.75,4.44,3.04,3.57,6.16-.99,3.42-6.35-2.57-7.07-2.63l-4.16.8c1.53,3.02-.34,2.94-1.09,4.56-1.14,2.46.43,2.81-3.46,4.18-1.15,4.99,3.3,4.79,3.71,5.98l-7.12.4-4.78-.12c-.25-1.7.7-3.23.75-4.87.13-3.95-1.4-9.58.02-13.3.36-.95,1.79-.79,2.12-1.78,1.47-4.41-1.54-8.93,3.88-11.79.7-.37,2.44,1.16,1.48-2.27-.16-.56-1.42-.54-1.51-.86-.55-2.07,1.13-1.51,1.64-2.89.66-1.77,1.46-7.88-.51-8.72-2.52-1.08-1.82,1.94-2.82,2.8-.88.76-4,1.17-5.1,2.77s-.34,3.4-1.06,4.94c-.76,1.61-4.54,2.16-5.3,3.74-.53,1.1.69,2.54.32,3.96-.52,2.03-4.04,3.1-5.56,4.28-.97,1.51,2.25,8.82-3.06,4.9,1.64-1.25-2.62-5.64-2.97-5.66-.62-.03-1.73.8-2.87.74-1.71-.09-3.14-1.64-4.98-1.15l-2.58,3.41c-2.54-5.64-5.41-1.62-7.5-1.74-.54-.03-9.18-4.86-9.34-5.42-.19-2.25,2.71-3.93,4.46-4.45l-3.71-1.17c-1.33-2.83,1.39-3.94,1.46-4.2.6-2.27-2.37-3.21-1.81-6.32-6.75-.93-3.2-4.86-4.21-9.17-.12-.53-1.26-.53-1.42-1.1-.56-2.05-.53-4.95-1.32-6.77-.53-1.22-1.68-.84-1.73-.92-.23-.37,1.1-1.23,1.32-2.03,1.19-4.14-1.11-3.81-1.3-4.5-.81-3.02-.88-8.65.02-11.66.2-.66,1.3-.55,1.44-1.05.74-2.68-1.24-2.37-1.44-3.07-.95-3.24-1.29-9.24,0-12.37,2.44-5.89,4.15-13.94,7.36-19.93,3.22-5.99,6.29-13.1,10.86-18.63,1.09-1.32,10.95-11.53,11.69-11.91,1.39-.7,2.83-.07,4-.35.82-.2.7-1.8,1.75-2.15.82-.27,6.17-.87,7.39-.91,5.93-.21,7.41,2.92,11.51,6,7.32,5.5,6.65,5.05,11.65,12.53.48.72,3.86,3.82,4.18,4.59,1.08,2.6.91,6.91,1.59,9.39.16.61,1.27.46,1.44,1.07.41,1.51-.1,3.34.7,5.19.7,1.63,2.76,1.82,2.71,4.02,1.93-1.44.74-3.73,1.14-5.49.13-.56,1.33-.43,1.47-1.02,1.21-5,1.97-10.88,3.08-15.56,1.01-4.24.68-9.34,1.45-12.66.13-.56,1.34-.45,1.47-1.02.84-3.61-1.83-8.98,4.18-9.94,6.06-.97,12.46,1.34,10.81,8.44-.14.61-1.36.19-1.54,1.58-.81,6.18.24,15.19.09,21.83-.12,5.25-1.73,11.13-.78,16.46.18.99.73,2.14,1.86,1.88,2.39-1.61,1.4-4.24,1.91-6.22,2.66-10.33,6.59-21.42,8.9-32.48,2.08-9.94,6.77-16.36,10.53-25.61.89-2.2-.88-5.38,4.56-3.51.19,4.39-.89,8.29-.79,12.73.31,14.67-.55,29.01-5.17,42.14-1.74,4.95-2.09,13.49-3.05,18.57-.74,3.9-2.01,7.61-2.93,10.71-1.74,5.88-.57,10.4-1.58,14.65-.14.57-1.33.45-1.47,1.02-.95,3.96.27,13.08.02,17.89-.25,4.89-2.07,10.07-1.58,15.02.58,5.8,2.09,3.83-1.44,9.85-1.29,2.19-.35,3.51-.05,5.77-.44,1.67-5.73,1-2.87,4.49.53.65,2.03.57,1.41,2.72,2.44.27.5-2.03,4.12-1.5,2.82.42-2.37,3.81-2.63,4.11-3.47,4.01-.81,5.2-.73,9.03.12,5.89-4.67,3.21-7.17.4l1.15-7.54c-3.27-.71-2.21,2.54-4.53,3.45,2.18,3.71,1.74,9.86,6.79,10.05l-11.25,8.25ZM167.6,520.32c-3.6-2.09-7.21-2.18-11.33-1.78s-5.53,1.6-8.15,4.49c-5.04,5.55-14.06,24.52-16.28,31.69-.68,2.2-4.02,9.08-4.44,10.82-.54,2.25-.84,7.28.05,9.39.82,1.95,4.06,8.61,4.41,10.11.33,1.41-.3,6.66.02,6.98l4.42.13c1.61,3.3,2,7.54,6.08,8.49,6.64,1.54,8.28-2.32,12.05-5.96,4.11-3.95,9.1-8.33,13.97-11.67,1.52-1.04,4.25-1.64,5.85-3.72l-.38-2.28c2.24.28,4.47-.35,6.02-2.03.31-8.71,2.03-16.44,1.53-25.38-.58-10.35-1.98-10.79-6.25-18.53-1.88-3.4-.91-2.9-3.57-6.14-1.16-1.41-1.67-3.29-3.99-4.63Z"/>
      <path d="M102.42,313.28c.45.19,4.32,2.29,4.9,2.73.52.39,6.34,6.18,6.56,6.59.83,1.61.67,4.75,1.38,6.65,1.48,3.95,4.83,9.85,5.27,14.25.72,7.24.76,14.66.94,21.93l4.23-.08c.6-1.54.72-3.4,1.46-4.88.43-.86,1.38-.9,1.66-1.52,1.53-3.4,1.42-7.28,4.58-10.27,2.1-1.64,8.38-1.53,10.72-.25.39.22,5.93,5.51,6.52,6.2,4.24,4.86,5.47,9.99,8.2,15.18l1.49,16.97,2.56,1.27c3.44-2.88,1.68-8.5,2.07-13.05.37-4.28,1.62-9.41,3.45-13.04.15-.29,3.48-3.87,3.74-3.94.74-.18,5.02-.15,5.37.11s.36,1.68.85,2.35c.36.5,1.18.5,1.46,1.12,4.24,9.47,2.43,17.76,4.56,27.4.06.25,2.36,1.64,2.81,4.07.71,3.87-.56,9.03.2,12.42.12.52,1.21.49,1.6,1.55.7,1.93.53,4.01.72,6l3.3,1.9c.25-.85,1.71-1.52,1.81-1.98.61-2.67,1.31-8.93,1.53-11.83.48-6.4-.12-8.45,1.46-14.43,1.38-5.23,1.23-10.68,3.59-15.77.11-.25,3.49-3.85,3.75-3.92,2.96-.79,3.29,1.54,5.86,2.21.87,1.21-.04,13.87-.79,15.06-.32.51-1.63.44-1.86,1.28-1.23,4.58.22,13.15-.86,16.24-.36,1.03-1.95.95-2.16,1.73-2.21,8.56.83,27.85-.07,38.01-.46,5.16-2.22,9.53-2.92,15.08-.76,6.05-2.1,9.02-8.89,7.79.22-3.78-3.06-4.91-3.93-6.94-2.15-5-1.88-10.66-3.61-15.87-3.85-11.62-4.1-25.16-7.51-36.9-1.51-5.2-.4-12.7-1.56-17.68-.08-.33-2.57-1.08-1.49-3.51l-2.99,1.32c-.26,2.73-1.14,5.36-1.5,8.07-1.22,9.34-1.56,22.56-4.57,31.45-2.66,7.84-.7,22.36-1.38,30.84l-3.59,6.34-7.61-.11c-1.96-1.23-.11-16.14.71-18.81,2.56-8.35,1.25-14.8,2.96-21.82.16-.64,1.36-.2,1.54-1.59.28-2.17-.31-4.91-.06-7.18l-2.31.44c.49,2.16-1.94,4.16-2.11,4.66-1.08,3.27-.28,8.36-1.59,10.82-1.12,2.1-9.84,11.01-12.04,12.92-.39.34-4.62,3.21-4.97,3.26-2.55.43-3.72-.42-5.89-.63-1.13-.11-2.38.64-3.02.56-.49-.06-1.22-1.89-2.4-2.56-2.47-1.41-5.48-1.53-6.92-5.08-.91-2.24-.31-4.75-.76-6.62-.14-.59-1.32-.45-1.47-1.03-.61-2.53-1.36-9.81-1.51-12.61-.25-4.86,1.31-10.01.78-14.29-1.17-9.47-11.27,4.03-13.35,5.7-2.85,2.3-6.31,3.12-9.38,4.52-.77.35-.58,1.67-2.58,2.04-3.12.58-10.97.44-13.89-.65-.62-.23-.68-1.16-1.18-1.36-6.6-2.7-9.46-2.85-8.35-11.63.42-3.32,2.81-5.1,2.91-5.48,4.8-19.05,5.52-37.16,11.97-55.53,1.21-3.45,3.1-11.8,4.57-14.6.78-1.48,6.89-8.77,8.23-9.96.46-.4.57-1.51.9-1.71.7-.43,6.9-.34,7.88.09ZM87.63,382.41c-.55,4.94.4,10.7,0,15.75.86,1.65,3.81,1.02,5.02.14.85-.62,8.12-7.96,8.98-9.02,2.87-3.51,3.27-6.36,4.32-10.34.38-1.43,1.8-1.32,1.92-1.93.71-3.43.59-8.87,1.54-12.45.18-.67,1.35-.23,1.53-1.61.35-2.71.44-17.92-.08-20.15-.12-.53-1.2-.49-1.42-1.1-.51-1.43-.2-3.2-1.23-4.63-.58-.8-2.12-.99-2.46-2.03-.42-1.28.2-2.95-.24-4.28-.05-.16-2.15-2.45-2.31-2.52-2.19-.91-4.15.45-5.78,1.72-4.59,3.53-5.99,9.84-3.24,15.13.63,1.21,1.91.88,2.29,2.96.52,2.87.54,11.41-.62,13.91-1.59,3.4-3.27,6.64-4.39,10.15-.99,3.11-3.58,8.22-3.81,10.3ZM145.13,367.32c-1.25-.58-3.49-1.08-4.81-.55-.81.33-.87,1.42-1.15,1.55-1.93.91-2.89-.89-3.74,3.06-3.07-.37-1.93,3.76-3.34,6.7-.71,1.48-5.15,7.01-5.32,7.45-.73,1.89-.36,5.95-.92,7.95-.17.63-1.32.5-1.45,1.05-.37,1.56-.38,20.66,0,22.22.14.57,1.35.45,1.47,1.02.29,1.29-.22,2.92.07,4.31.76,3.61,2.2,5.47,4.95,7.83.78.2,6.25-1.01,6.8-1.6.46-.49.67-2.4,1.42-3.37,5.52-7.11,6.58-7.94,9.32-16.87.19-.63,1.25-.48,1.42-1.1,1.26-4.59,1.89-30.37-.12-33.81-.23-.4-1.66-.53-2.15-1.2-.82-1.11-.61-3.81-2.45-4.66Z"/>
      <path d="M428.65,211.25c1.44,1.77,1.39,10.23.48,12.36-.51,1.2-1.89,1.18-2.53,2.02-6.07,8.05-12.31,16.41-15.6,25.63-.39,1.08-1.44.96-1.89,2.6-1.76,6.42,1.46,6.62,5.03,10.51,2.44,2.65,4.48,4.41,6.77,6.77,1.54,1.59,9.24,11.45,10.58,11.14,1.61-1.1,1.22-3.33,1.93-4.68.34-.64,1.24-.63,1.67-1.5,5.54-11.13,4.79-21.17,14.53-30.82,1-.99.87-2.54,2.89-2.76,1.9-.21,5.84,2.31,6.75,3.77.37.59-.19,5.39-.43,6.19-1.39,4.69-8.19,13.03-10.67,17.98-2.59,5.16-3.96,12.26-5.71,17.66-2.22,6.83-1.46,8.73,2.59,14.36,3.34,4.64,5.81,9.3,9.08,14.14,1.01,1.5,2.79,2.35,3.21,5.08l2.28.33c-.29-2.28,1.63-2.64,2.25-3.54,5.24-7.66,6.23-18.35,10.3-27.02,2-4.25,5.32-9.32,7.63-13.55,2.75-5.01,5.49-15.71,12.75-9.41l-.65,11.04-2.33.89c.67,4.76.02,5.08-2.47,7.94-1.23,1.41-4.99,5.19-5.69,6.51-1.55,2.95-2.57,7.89-3.96,10.88-.56,1.2-4.43,3.77-4.88,4.47-.58.91-.22,2.81-.88,3.83-.57.9-4.47,1.03-5.38,2.47l-1.47,16.95c-.16.67-1.21.63-1.45,1.09-1.36,2.61-2.66,5.03-5.08,6.98-1.54,1.24-3.6.9-4.32,2.98l-1.11-.03c.15-1.55-1.58-1.7-2.11-2.73-.72-1.38-.5-2.93-.96-4.18-1.3-3.51-3.25-8.38-4.5-12.17-1.86-5.62-.61-7.14-4.14-13.12-3.84-6.48-11.31-14.75-16.52-20.56-3.48-3.88-13-14.67-17-17.51-1.01-.72-3.43-.8-4.84-1.51-2.99-1.5-5.89-8.49-7.01-11.62-.23-.64-1.29-.59-1.41-1.11-.25-1.08-.25-5.37,0-6.45.11-.49,1.06-.43,1.4-1.12,1.11-2.23,3.39-6.78,4.85-8.88.73-1.05,3.38-2.71,4.15-3.72,4.12-5.44,9.28-12.99,12.02-18.88,1.41-3.04.12-6.78,1.65-9.82,3.75.62,7.16-3.59,10.17.12Z"/>
      <path d="M305.68,481.23c1.3,1.05.93,4.78,3.19,5.56v1.98c-2.01,1.03-1.76,3.42-2.88,5.45-.31.56-2.13,3.58-2.31,3.7-1.31.92-3.92-.08-5.56.48-4.92,1.66-.07,10.19-6.48,8.88.14-1.48-.36-3.43.11-4.79.37-1.09,3.64-1.41,2-4.87-1.67.47-2.2-1.44-2.65-1.56-3.37-.93-3.23,1.35-3.72,1.46-1.16.26-3.19-.37-3.89.12-.32.22-3.04,4.7-4.61,6.16-2.83,2.64-3.34,3.4-6.02,6.68-2.39,2.92-6.22,5.89-7.53,9.9-2.13,6.48.33,17.95-1.43,24.67-.19.74-1.45.42-1.5.49l.36,1.49c3.06.4,8.02-.68,11.05-1.56,3.41-.99,3.54-.93,7.69-1.45s9.51-2.9,12.4.57c1.26,1.51,4.18,6.96,4.42,8.88.26,2.06-.37,4.99.05,6.57.2.74,2.26.09,1.5,1.97-1.75-.34-1.8,2.06-2.94,2.59-3.58,1.68-4.93,2.23-8.36,5.2-2.23,1.94-3.33.4-3.3,5.74-1.06,1.47-3.08,1.02-4.31,1.55-.78.34-1.75,3.05-3.58.97-.33-2.87-.6-8.34.01-11.03.13-.57,1.34-.45,1.47-1.02.37-1.57-.18-3.78,0-5.48-3.13.91-2.7-2.21-5.48-1.49l-8.71,6.41c-1.17,1.51-.44,3.57-.83,5.05-.16.62-1.26.43-1.44,1.07-1.51,5.47-.05,12.96-1.56,18.43-.17.63-1.33.49-1.46,1.04-1.26,5.59.49,12.01-.04,17.74.92,3.89,15.72-4.81,14.24,4.22l-2.08.12c-.45,1.88-.87,6.13-2.16,7.46-1.54,1.59-3.87,1.03-5.25,1.71-2.83,1.39-4.92,3.04-8.41,4.69-3.05,1.44-3.92,3.49-7.79,2.56-1.95-.47-1.75-5.01-2.05-6.23-.15-.61-1.33-.48-1.46-1.04-.26-1.1-.24-5.41-.07-6.66.18-1.37,1.34-.93,1.53-1.61.79-2.88.58-7.17,1.47-10.38.61-2.2,2.39-4.7,2.99-8.29,1.15-6.85,2.51-13.49,3-21.01.59-9.03,1.84-20.26,3.02-29.97.16-1.29,2.59-1.37,1.55-4.04l-4.52-1.27c.34-2.83-.37-6.23-.03-8.93.18-1.45,1.43-.69,1.62-2.14,1.25-9.7-.45-16.83,2.89-26.49.69-2-.3-5.04,2.47-6.4,4.68-2.28,6.1,2.18,7.11,2.43,4.3,1.05,2.75-1.33,3.38-2.02.16-.18,2.66-1.96,3.64-2.8,5.23-4.45,6.52-4.88,12.86-7.23,3.08-1.14,5.48-1.74,8.56-2.81,1.29-.45,1.07-1.86,3.04-2.21,1.62-.28,5.57-.21,6.79.78Z"/>
      <path d="M329.69,345.49c.4.48.31,1.69.9,2.46s1.84.69,2.27,1.67c.73,1.7.86,5.92,1.75,7.45.46.79,3.72,3.66,4.28,4.52,3.42,5.25,4.75,13.07,7.56,19.09,4.15,8.88,14.51,24,16.7,32.18.36,1.36,1.13,6.54,1.01,7.71-.2,2-3.94,3.81-5.7,5.44-.75.69-.65,1.86-1.07,2.29-.34.36-4.03,1.88-4.6,1.73-1.93-.5-.78-4.82-1.27-6.29-.34-1.01-1.92-.9-2.14-1.75-.74-2.79-.32-7.14-1.07-10.04-.33-1.27-4.48-8.43-5.33-10.36-1.2-2.74-.6-5.69-1.3-7.38-.1-.24-2.78-2.68-3.23-3.8-1.25.46-3.18.29-4.23.69-.68.26-.68,1.19-1.15,1.38-3.06,1.24-6.06.03-6.22,4.95-.07,2,1.09,11.25,1.57,13.33.45,1.93,3.76,8.28,4.59,10.57.62,1.72,2.67,7.66,2.87,8.48.62,2.59-.42,6.78.07,9.63-.03.28-2.99,3.79-3.23,3.88-1.43.51-2.69-.07-3.84.2-.82.19.12,1.8-1.6,1.52-2.2-1.98-2.27-4.4-3.39-6.98-2.21-5.09-1.62-8.44-3.02-13.5-1.58-5.72-4.01-12.41-6.04-18.69-.19-.6-1.16-.67-1.37-1.18-2.34-5.64-.34-15.46-1.58-20.65-1.36-5.71-1.61-13.48-3-19.5-.14-.61-1.36-.19-1.55-1.59-.2-1.53-.2-13.23.17-13.82,7.85-3.7,4.92,6.08,5.88,9.86.17.67,1.58.79,2.13,1.76,2.66,4.76,3.15,12.33,5.32,18.11.57,1.51.46,3.52.84,5.03.22.88-.56,1.36,1.1,1.13,1.03-.15,3.05-1.09,3.9-1.74.17-.13,2.86-2.85,2.98-3.02.44-.65,1.58-3.2,1.7-3.92.4-2.45-.63-16.46-1.39-18.73-.36-1.06-4.49-6.5-4.61-7.42-.11-.83-.11-4.45.15-4.82,1.16-.65,3.3-1,4.21.1Z"/>
      <path d="M162.46,22.24c3.14,1.63,1.28,6.75,7.39,4.41.99-.38.99-1.3,1.63-1.54,19.03-7.1,17.56,15.6,14.33,27.84-.16.62-1.32.33-1.49,1.66-.97,7.62,1.14,18.47-1.5,26.1-.71,2.05-4.77,10.15-6.2,12.33-.22.34-5.4,5.65-5.75,5.86-1.05.66-6.61.71-7.52.04-.62-.45-.62-1.88-1.2-2.59-4.35-5.32-2.01-8.83-3.28-14.56-.13-.6-1.37-.18-1.55-1.58-.66-5.07-.66-22.78,0-27.85.18-1.4,1.4-.98,1.54-1.59.44-1.86-.27-4.53.02-6.61.34-2.46,1.89-5.87,1.49-8.08-.36-1.98-4.14-1.94-5.41-2.25-.78-.19-1.47-1.11-2.49-1.27-2.34-.36-5.52-.12-7.89.29-1.73,1.2-.13,23.06-.64,27.1-.18,1.45-1.44.7-1.62,2.15-1.34,10.66.37,24.79-.7,36.04-.59,6.24-5.93,6.35-6.72,2.24-1.04-5.42,1.04-13.16,1.47-18.74.3-3.83-.51-8.43-.05-12.05.18-1.45,1.44-.7,1.62-2.15,1.29-10.22-1.11-23.16-.02-33.69l-4.9-2.75c-1.34,2.46-7.69,1.78-11.05,2.49s-4.43,2.65-8.09,2.02c.26-2.38-.98-7.44,1.5-8.63,1.81-.87,3.83,0,5.5-.38.55-.13.45-1.34,1.02-1.48,2.96-.71,14-1.03,18.61-1.52,5.64-.61,12.18.78,18.06.07,1.4-.17.98-1.4,1.57-1.56.81-.12,1.57-.2,2.34.2ZM170.65,46.29c-1.29-.89-4.4-1.79-5.44-.29-.93,2.17.14,4.94-.34,7.03-.14.61-1.36.19-1.55,1.59-.49,3.77-.49,16.58,0,20.35.18,1.4,1.4.98,1.55,1.59.44,1.92-.17,4.79.19,7.18.4,2.66,1.81,3.66,2.83,5.8l5.71-6.25c3.69-7,4.74-14.4,4.84-22.62.03-2.86-1.2-5.88-.94-8.89-1.51-2.4-3.88-2.74-5.83-3.93-.52-.32-.69-1.32-1.02-1.55Z"/>
      <path d="M46.6,266.31c2.88,2.12,7.64,3.3,10.02,4.98,2.51,1.77,13.23,12.45,15.03,14.97,1.06,1.48,1.08,5.2,1.76,6.73.38.85,2.11.17,1.45,2.03-1.55-.29-1.68,1.78-2.71,2.14s-6.31.36-7.31.01-.95-1.94-1.74-2.16c-1.56-.43-6.3,2.09-7.48,3.27-2.82,2.81-5.83,10.14-7.54,13.82-5.42,11.64-11.14,23.28-15.26,35.61-.32.96-2.41,1-1.43,5.3.14.59,1.14.56,1.47,1.06.48.73.57,1.85,1.14,2.45,1.21,1.24,3.1.89,4.28,1.57,1.03.59,2.23,2.79,3.57,3.46v1.96c-3.04,2.43-.81,6.62-6.91,6.32-8.67-.43-9.2-4.64-14.62-8.84-3.78-2.93-10.16-4.49-13.66-7.17-.51-.39-5.36-5.26-5.58-5.6-1.63-2.53-1.29-5.65.03-8.23,6.05-1.78,12.17,1.92,18.11-.9-.21-1.92,1.39-2.03,1.86-2.99,1.59-3.22,2.58-8.02,4.33-11.2,3.76-6.82,7.54-13.65,11.27-20.46,2.31-4.22,6.45-7.9,8.14-10.77.27-.46,3.56-7.76,3.61-8.21.16-1.38-.06-6.02-.74-6.8-.24-.28-1.37-.02-1.79-.37-3.01-2.57-4.03-4.92-8.54-6.32l-.75-8.44,7.74.14c1.54.47,1.55,2.13,2.23,2.64Z"/>
      <path d="M273.45,337.27c.1.05.2.9.78,1.18,3.01,1.47,5.91,1.1,5.27,5.55-.25,1.76-1.27,1.57-1.87,2.32-.37.45-.1,1.58-.35,1.82-.27.25-4.73.53-6.05.97-.57.19-.6,1.11-1.19,1.35-3.83,1.51-8.28-1.05-12.2,1.26l1.55,19.31c4.07,6.94,1.9,19.02,2.93,27.18.18,1.45,1.44.71,1.62,2.15,1.19,9.77.16,21.24,1.38,30.85.18,1.45,1.44.7,1.62,2.15.23,1.8.27,9.63-.08,11.15-.12.53-1.25.51-1.42,1.1-1.11,3.84-1.56,10.58-6.41,11.42-.14-1.06-2.58-3.31-2.62-3.53-.87-4.07.1-8.62.01-12.56-.31-13.17-.49-26.7-1.53-39.79-.98-12.28-2.69-27.21-7.41-38.49-.5-1.2-1.01-4.34-1.8-5.17-.56-.59-1.6-.51-2.25-.95-.48-.33-.53-1.22-.72-1.3-1.82-.79-6.86-.28-7.29,1.84-.54,2.73.25,6.59-.04,9.57-.54,5.47-3.92,14.15-5.92,18.97-.51,1.23-.27,3.59-1.18,4.67-1.35,1.6-7.13.36-9.39.74.18-2.82-.26-5.83,0-8.62.6-6.25,6.2-19.89,10.76-24.17.4-.38,1.52-.01,2.03-.68.79-1.04,1.14-3.48-.51-3.99-4.9-1.52-8.14,10.78-13.82,5.45v-7.26c1.76-.29,3.29-2.72,3.94-2.98,1.91-.75,4.34-.42,6.32-1.14,6.05-2.19,12.81-5.93,18.81-7.59,7.12-1.97,16.84-.6,23.89-1.47,1.59-.2.81-2.5,3.15-1.33Z"/>
      <path d="M234.4,229.29c.19.07,2.19,2.26,3.29,2.33-.08,1.54,1.91,2.72,2.13,3.26,1.42,3.42.37,6.78.99,10.15.39,2.13,2.65,1.89,2.08,4.26l2.94-2.83c.2-3.88,2.01-9.21,4.26-12.13.27-.34,3.06-3.32,3.27-3.43,5.52-2.73,7.43,2.11,9.11,5.77.25.55,1.27.63,1.39,1.15,1.31,5.92.02,13.57,0,19.31-.08,15.8-1,33.01,3,47.44.69,2.48,1.7,12.79-.88,13.96l-3.63.18c-.13-2.1-2.48-3.12-2.95-4.01-3.13-5.98-.6-19.2-1.46-26.1-.2-1.6-2.17-.71-1.57-2.95.07-.26,2.24-.07,1.57-4.55-.22-1.47-1.43-.71-1.61-2.15-.62-4.92,1.42-6.02,1.62-7.5,1.1-8.39-.98-19.16,0-27.84l-1.93-2.6c-3.47,1.2-3.13,4.96-4.18,7.68-2.85,7.41-5.02,12.64-5.93,21.22-.28,2.62.19,5.44,0,8.09-2.89,1.65-2.73,4.19-6.41,4.31-1.63.05-.84-.34-1.19-1.09-3.97-8.5.62-23.63-1.43-32.18-.14-.57-1.35-.45-1.48-1.02-.33-1.46.45-3.29-.37-4.76-2.67-4.49-3.99,5.36-4.13,7.15-.28,3.64.69,9.55-.03,12.6-.14.61-1.36.19-1.54,1.59-1.74,13.35,1.61,30.57,0,44.24-.11.93-1.42,5.4-1.93,5.76-4.28,3.02-5.34-4.6-5.54-7.17-1.11-14.35-.3-39.73,1.47-54.08.17-1.39,1.39-.95,1.54-1.59.99-4.17,2.16-9.22,3-12.75.69-2.88-.6-7.45.77-10.73.22-.2,5.01.71,5.76,1.01Z"/>
      <path d="M362.61,325.28c7.34,12.89,17.62,24.54,27.03,35.99,3.21,6.66,10.41,11.63,15.59,17.01,1.88,6.92-.34,13.59-8.48,11.88.21-2.17-1.72-2.43-2.33-3.47-4.61-7.79-9.31-11.64-14.78-18.4-1.75-2.16-1.04-5.91-6.21-4.96-.31,1.66-.85,3.88-1.62,5.34-1.27,2.4-4.06,5.4-5.9,8.32-.56.88-2.1.67-2.32,2.42-.05.4.68,7.52.81,8.11.53,2.34,2.09,5.98,2.23,9.89.07,1.73.59,8.12-1.13,8.61-3.07.88-2.28-2.55-2.65-3.94-.18-.67-1.32-.48-1.87-1.99-1.58-4.38-.08-8.57-.36-13.18-.27-4.29-3.01-9.08-3.7-13.55-.85-5.53-.31-7.81-3.07-13.27-4.01-7.93-4.55-16.62-7.39-25.16-.98-2.95-1.56-16.69.11-18.72,7.7-4.19,11.24,4.73,16.05,9.07ZM360.63,344.91c-.99,3.54.73,11.3,0,15.38l5.01-2.44c3.02-2.51.9-12.56-2.39-14.83-.79-.15-2.51,1.5-2.62,1.9Z"/>
      <path d="M260.73,7.19c1,2.7,5.68,4.92,6.42,7.43,1.43,4.83,1.36,13.54-.21,18.32-3.19,9.74-11.45,16.63-17.16,24.85-.79,1.14-.14,3.51-2.39,3.26v1.47c.65.07,1.41.24,1.82.77,4.81,6.11,7.34,14.91,13.26,21.27,3.41,3.67,3.4,2.02,7.49,3.04,6.04,1.5,5.46,22.89-5.08,16.66-2.86-1.69-2.83-5.25-4.26-7.74-4.1-7.15-7.58-12.52-12.97-19.26-.56-.7-1.04-4.18-3.26-2.73s1.01,28.14-2.01,30.05l-4.29.63c-2.93-3.02-3.31-6.69-2.77-10.87.18-1.4,1.42-.98,1.55-1.58l1.53-77.72c3.78-4.57,5.37-4.93,10.66-6.59.61-.19.57-1.29,1.1-1.42,1.05-.25,10.06-.18,10.57.14ZM257.6,32.27c1.23-2.42,2.46-11.13.65-13.24-1.45-1.68-10.04-2.01-11.45-.59-.6.61-.59,3.36-.98,4.51-.22.65-1.32.33-1.49,1.65-.79,6.16.74,13.96,0,20.33l1.57,2.58,8.77-9.2c-.07-2.81,2.26-4.71,2.94-6.05Z"/>
      <path d="M137.69,211.2c.39.65.46,13.58.25,15.26-.18,1.45-1.44.7-1.62,2.15-.25,1.98-.2,17.22.5,17.75.63.2,1.22.39,1.89.29,2.49-.35,9.51-5.56,11.19-7.67,6.01-7.54,2.64-16.48,4.5-25.17.04-.2,2.32-1.82,2.18-3.22l2.86.62c.88,1.57.53,3.71.98,5.26.2.68,1.33.29,1.51,1.63.25,1.95.26,7.91,0,9.85-.18,1.4-1.39.96-1.54,1.59-3.79,16.16.57,37.81-1.46,53.91-.18,1.45-1.44.7-1.62,2.15-1.18,9.37,2.34,31.26-1.23,38.48-.47.95-2.32,1.9-2.86,3.17l-1.84-.49c.34-1.95-2.95-4.93-3.06-5.81-.17-1.4-.22-6.21.07-7.4.13-.55,1.28-.42,1.45-1.05,1.15-4.13.65-10.66,1.54-14.71.13-.61,1.36-.18,1.55-1.58.75-5.73.74-25.87,0-31.6-.18-1.4-1.38-.97-1.54-1.58-.91-3.38,1.35-3.25,1.47-3.75.59-2.48-.38-6.52.01-9.24l-6.88,3.08c-1.12,2.83-6.05,2.21-7.22,3.07-.46.34-.43,1.65-.89,2.32-.34.5-1.36.45-1.5,1.05-.67,2.94-.53,24.09-.07,27.66.18,1.4,1.4.98,1.54,1.58.42,1.82-1.06,7.93-1.52,10.33-.45,2.33-4.58,6.63-6.33,4.15.49-2.2-2.6-5.67-2.68-6.32-.15-1.22-.19-4.83.07-5.91.44-1.84,2.04-4.57,2.27-8.35,1.38-22.85.07-47.54.03-70.49-.25-1.42,2.99-4.8,4.17-4.84,1.99-.07,1.61,3.61,3.84,3.84Z"/>
      <path d="M194.62,229.3c5.01,3.96,3.62,5.47,4.78,10.48.13.58,1.35.46,1.48,1.02.51,2.26-.83,8.18,3.62,4.23,1.47-1.3,3.86-3.58,5.12-5,1.76-1.99.85-5.21,6.16-2.62.29.47.28,3.29.16,4.06-.21,1.37-1.25.91-1.5,1.64-1.22,3.52-1.58,5.27-4.22,8.38-1.04,1.22-7.71,6.82-7.84,7.34-.21,9.45.74,19.66-1.55,28.89-.15.62-1.21.51-1.39,1.13-1.01,3.38-2.6,11.2-3.96,13.93-.54,1.09-1.93,1.08-2.1,1.79-.28,1.17.39,2.79-.31,4.02-.84,1.3-6.21.79-7.76.18-.82-.32-.86-1.28-1.45-1.72-.67-.49-1.79-.55-2.47-1.15-.25-.23-2.87-5.13-3.2-5.8-3.25-6.65-2.72-10.59-4.31-17.29-.15-.64-1.36-.19-1.54-1.59-.58-4.41-.58-19.69,0-24.1.18-1.4,1.42-.98,1.55-1.58,1.83-8.29,1.6-16.92,7.21-24.2.65-.84,3.6-3.64,4.44-3.78,3.15-.56,6.58-.25,9.1,1.75ZM184.7,251.97c-1.01-1.49-.94-4.28-3.67-1.92-2.37,3.79-.29,9.26-1.16,12.97-.14.61-1.36.19-1.54,1.59-.22,1.7-.22,6.65,0,8.35.18,1.4,1.41.98,1.55,1.58,1.39,6.18-.07,7.38,2.94,14.33,1.32,3.03-.28,6.7,5.71,5.43,1.92-.41,4.24-5.93,4.82-7.95.38-1.32,1.43-4.37,1.49-4.63,1.74-7.52,1.63-15.26,1.58-22.94-.36-1.57-4.99-1.01-6.25-1.28-1.04-.22-4.64-4.33-5.46-5.53Z"/>
      <path d="M283.38,288.28c.04.07,1.19-.34,1.48.53,1.74,5.21-.15,8.57,4.19,13.66.75.88,6.9,6.71,7.44,6.82,1.9.37,7.24.1,9.09-.62,2.8-1.09,3.95-4.25,3.27-7.11-.11-.48-1.1-.33-1.54-1.61-.82-2.38-.7-5.41-.69-7.92l5.15.12c.25,1.26.64,2.39,1.36,3.47,1.09,1.62,4.61,4.65,5.35,5.93,1.41,2.41.43,5.07.9,7.23.15.7,2.02.13,1.51,2.36-2.19,1.29-3.85,5.17-6.07,6.7-1.2.83-2.63.7-3.88,1.23-.54.23-.54,1.31-1.09,1.43-2.14.46-13.51.65-15.4-.05-.67-.25-.65-1.14-1.15-1.38-2.41-1.12-4.79-1.19-6.67-4.05-.3-.45-4.03-7.03-4.17-7.43-2.44-6.66-2.09-12.14-3.6-18.8-.12-.54-1.27-.44-1.43-1.08-2.33-8.86-.53-24.89-.06-34.32.26-5.11-2.32-17.23,5.49-15.35.64.15.59,1.23,1.04,1.48,3.41,1.95,6.04-.09,8.86,0,4.05.13,8.77,1.76,12.98,1.65.69,2.98,3.88,4.83,3.83,7.64-.08,4.43-1.82,3.06-4.62,4.26-.53.23-.52,1.26-1.1,1.42-3.64.97-2.95-1.24-4.45-2.09-1.04-.58-2.54-.42-3.44-.9s-4.54-3.91-5.66-4.42c-.79-.36-3.71-1.1-4.32-.1-.77,2.95-.36,7.16-1.13,10-.18.67-1.35.23-1.53,1.61-.49,3.74.48,8.55.06,12.43,7.72.12,14.56-1.05,17.35-8.9l4.65-.13c2.22.52,2.6,11.59,1.64,13.55l-3.38,3.33c-1.22.73-11.06.62-13.09.34-2.68-.37-3.67-3.56-7.16-2.94v12Z"/>
      <path d="M324.36,10.33c.18.06.28.85.89,1.11,2.82,1.18,6.01,1.67,7.94,4.66.86,1.32.67,2.78,1.23,3.87.35.67,1.38.7,1.69,1.48,1.53,3.86.95,14.13-4.72,14.09-.15-7.18-3.19-11.62-8.03-16.52-1.98.24-4.63-.38-6.45.04-.49.11-.44,1.06-1.12,1.4s-1.96.02-2.86.74c-.77.61-.69,1.81-1.13,2.46-.39.58-1.26.67-1.39,1.15-.86,3.32,1.15,3.05,1.41,3.79,1.6,4.67,1.21,6.11,4.63,10.23,5.33,6.41,15.05,10.67,19.46,16.74.86,1.19.9,3.03,1.5,4.11,1.01,1.81,3.55,5.01,4.4,7.19,2.83,7.29,4.82,14.86,3.05,22.89-.12.53-1.2.49-1.42,1.1-.45,1.27-.24,2.83-.96,4.18-.27.5-5.46,6.61-5.85,6.84-1.51.89-3.3.01-4.8.51-.98.32-.99,1.74-1.36,1.97-.52.32-9.48.41-10.57.15-.52-.12-.47-1.18-1.11-1.41-1.51-.54-3.35-.44-4.86-1.54-1.98-1.44-4.03-5.28-6.57-6.55l.03-9.46,2.97-3.91,4.52-.36c-1.22,12.21,1.69,15.59,13.91,14.31,7.12-4.5,8.41-6.82,7.82-15.42-.31-4.48-6.11-16.1-8.97-19.54-5.07-6.08-12.83-10.31-17.52-17.02-5.06-7.22-8.31-16.34-5.7-25.53.18-.62,1.1-.62,1.37-1.17.55-1.11.92-2.84,1.81-3.66.81-.74,2.58-1.13,3.72-1.76.41-.23.44-1.12,1.14-1.41,3.28-1.38,8.56-.93,11.89.24Z"/>
      <path d="M390.45,268.21c.51.45.47,1.61.93,2.27.34.49,1.15.44,1.44,1.13,2.71,6.41,4.54,12.71,7.64,19.06,4.24,8.71,12.98,21.66,16.35,30.46.81,2.12.79,5.85,1.62,7.83.44,1.06,4.68,7.3,4.87,8,.72,2.67.72,20.17-.38,22.05-.23.39-1.88,1.49-2.26,1.57-2.87.57-3.04-1.67-4.04-2.27-5.57-3.36-6.54-5.66-11.03-9.57-8.17-7.11-18.51-13.8-26.13-21.9-2.26-2.4-7.86-9.63-9.04-12.15-.86-1.84-.94-6.03-1.58-7.86-.23-.65-1.31-.54-1.44-1.07-.33-1.41.14-3.24-.02-4.74,4.07-.96,3.7.66,5.32,1.77,4.68,3.2,5.69,5.43,8.78,9.99,4.01,5.93,9.43,12.85,14.15,18.53,2.06,2.48,12.73,14.33,15.46,16.01,1.63,1,3.02-.64,4.28,3.65l4.51-.44c.69-2.25-1.01-1.99-1.42-2.85-8.67-17.94-15.31-34.55-24.98-52.16-2.64-4.8-7.06-8.41-9.63-13.45-.23-.45-1.33-.45-1.47-1.06-.29-1.3-.22-10.27.2-11.29.08-.19,2.69-2.43,3.16-2.49.81-.11,4.19.53,4.7.98Z"/>
      <path d="M215.73,136.19c.33.2.45,1.3.91,1.71,6.28,5.62,4.47,6.79,8.25,12.18,1.05,1.5-.04,3.2,3.23,2.44.52-.15.47-1.2,1.09-1.42,4.46-1.54,7.61-2.97,11.93-4.85.15-.07,1.05-2.55,2.5-.8v6.73c-.64,3.47-12.3,8.14-15.41,10.06-1.26,1.77.21,18.34-.29,22.22-.18,1.41-1.42.98-1.55,1.58-.31,1.45.18,3.12-.22,4.92-.86,3.89-5.78,6.26-7.81,9.62-1.36.86-6.62,1.17-7.78.35-.62-.44-.48-1.83-.97-2.38-5.73-6.47-5.49-7.35-8.51-15.1-.36-.93-1.56-.8-1.71-1.44-1.47-6.59-2.86-29.09-.22-34.53,2.38-4.9,4.38-4.66,7.46-7.19.59-.48,3.31-4.13,3.77-4.23.93-.2,4.69-.24,5.33.14ZM207.52,151.16l-2.79-.02c-1.23.8-1.07,17.74-.84,20.51.39,4.84,3.76,13.85,6.72,17.28.97,1.13,4.05,3.73,5.54,3.29,3.63-2.61,3.2-5.38,4.29-9.1.17-.59,1.29-.57,1.42-1.1.36-1.55.35-15.34,0-16.94-.12-.52-1.11-.58-1.39-1.15-3.1-6.3-2.48-2.56-6.8-5.08-1.33-.78-5.89-5.97-6.15-7.67Z"/>
      <path d="M394.19,1.28c.2.21.17,1.11.49,1.68.17.31,1.06.37,1.17.86.92,3.93-.82,5.93-2.95,8.86l-22.52-1.14c-.79,1.96,1.32,1.21,1.51,1.96.75,2.88-1.51,2.3-1.95,3.95-3.4,12.88.83,36.15-1.01,50.76-.18,1.45-1.44.7-1.62,2.15-.55,4.35,1.77,17.51-1.89,19.85-4.2,2.67-5.14-.32-7.1-3.25.46-2.67-.49-6.45.08-8.89.12-.53,1.2-.5,1.41-1.11,2.53-7.4.59-16.61,1.51-23.84.18-1.45,1.44-.7,1.62-2.15.29-2.28.29-9.07,0-11.35-.18-1.45-1.44-.7-1.62-2.15-.59-4.69.37-10.86.09-15.83-.17-3.05-1.34-6.11-.78-9.35-2.69-.52-5.42.49-7.88.61-2.01.09-3.18-1.4-5.86.15-.73.43-.6,2.39-3.51,1.5-1.04-4.5,3.2-7.33,5.85-10.47,3.29-1.17,6.92-.38,10.14-.96,1.98-.36,1.8-1.66,2.59-2.03,2.94-1.37,23.85-1.17,28.33-.83,1.21.09,3.04.1,3.9,1.03Z"/>
      <path d="M183.46,126.46l.93,5.83c-2.14,0-4.91.08-6.91.82-.62.23-.63,1.11-1.17,1.37-1.18.57-2.56.41-3.86,1.25-2.95,1.91-3.4,5.14-4.64,7.96-2.71,6.19-1.67,7.05-2.93,12.85-.12.55-2.25.28-1.49,3.02.14.52,1.35.42,1.48.99.43,1.83-.23,4.52.03,6.61.85,6.9,4.45,17.62,10.09,22.15.83.67,3.53,2.15,4.52,2.3l4.04-2.78c-.02-5.01,1.28-14.2-.53-18.75-.1-.25-3.42-3.94-3.65-4.09-2.93-1.87-7.68-.23-9.71-3.95-1.22-2.23-1.33-5.36-.4-7.7.14-.36,2.38-3,2.56-3.09,3.05-1.51,3.51.99,4.15,1.24,1.98.78,6.46,3.39,6.84,3.48,2.8.73,6.12.01,9,1.15.23.28.24,4.59.06,5.4-.1.47-1.47.86-2,1.86-2.95,5.56,1.95,22.14-1.06,30.32-.22.59-4.6,5.74-5.23,6.14-2.37,1.51-5.79,1.63-8.14.02-3.02-2.06-7.28-6.79-9.01-9.89-8.51-15.24-12-45.77-.07-60.37,4.1-5.03,10.93-6.18,17.1-4.13Z"/>
      <path d="M202.62,78.08c1.07,2.37,2.39,5.42,2.77,8.63,2.45,1.61,3.85,6.42,7.08,6.46,3.65.05,3.39-2.48,6.2-3.83,1.11-1.7,1.16-7.67,1.73-9.77.17-.62,1.26-.44,1.43-1.07,3.87-14-1.75-36.15.11-50.78.11-.88.4-1.78.78-2.58h5.05c2.23,1.53,1.79,27.42,1.63,31.8-.18,5-.52,17.32-1.54,21.58-.13.56-1.33.44-1.47,1.03-2.24,9.21-.21,8.95-5.95,17.18-3.05,4.37-5.89,8.09-12.23,4.78-.36-.19-5.58-5.46-5.8-5.83-2.95-4.99-3.15-9.42-4.57-14.61-.17-.62-1.31-.48-1.45-1.05-2.5-10.39-.92-35.42-.77-47.12.07-4.93-.09-9.74.76-14.61l4.54.32c.74.51,1.34,4.18,1.44,5.3,1.23,13.54-1.41,28.75-.78,42.78.08,1.7.76,10.79,1.03,11.38Z"/>
      <path d="M286.29,10.17c-.49,1.65,1.46,2.23,1.56,2.65.35,1.45.66,8.16.77,10.34,1.06,21.01-1.7,43.17,2.33,62.92.41,2.02,2.84,11.66.26,12.49-1.69.54-4.69-2.18-5.45-3.55-3.4-6.14-3.66-17.16-3.92-24.58-.47-13.63,1.71-31.49.09-44.33-.18-1.45-1.44-.7-1.62-2.15-.46-3.64.49-8.21,0-11.99,2.39-.72,3.03-2.9,5.96-1.8Z"/>
    </g>
  </g>
</svg>