<?xml version="1.0" encoding="UTF-8"?>
<svg id="Layer_2" data-name="Layer 2" xmlns="http://www.w3.org/2000/svg" viewBox="0 0 1599 1389.91">
  <g id="Layer_1-2" data-name="Layer 1">
    <path d="M154.5,0c.4,5.56-.58,11.52-.02,17.02.16,1.59,3.39.44,3.04,1.73-.38,1.41-3.89,1-4.36,3.08-.34,1.48,2.02,15.41,1.97,19.42-.06,5.09-2.07,35.61-.62,36.75l4.11-1.14,1.89,2.64h-6.02s-1.29,47.74-1.29,47.74c12.87,3.56,21.27,11.68,33.52,16.8,12.59,5.27,26.36,9.08,39.68,12.09-1.71,8.82,6.25,6.78,11.59,9.41,1.17.58,2.35,4.16,6.14,5.06,3.81.91,17.55-.06,18.27.5.34.26-.27,3.49.42,3.97,5.44,3.78,8.62-.11,12.14.69,3.83.86,9.67,2.49,13.79,3.54,18.67,4.77,16.16,11.67,27.78,16.44,11.89,4.88,32.48,8.08,45,12.09,1.04-.37.97-3.67,2.16-3.75,5.92-.4,21.24,8.95,27.43,10.07,3.9.7,23.33-.27,24.34.42.23.16-.5,3.68,1.01,4.56,15.98,9.34,22.19,3.15,34.44,8.6,3.89,1.73,10.06,11.06,17.9,10.46l2.19-2.66-2.99-2.99,16.48-3.01,1,7.25c6.95-.93,13.13,2.33,19.39,3.09,38.91,4.74,78.72,10.51,116.52,18.49,38.5,8.14,76.28,13.92,116.23,17.25,16.55,1.38,37.55-1.65,56.51.51,4.86.55,13.97,5.85,18.13,6.08,3.73.2,20.24-4.36,23.67-4.26,6.58.19,15.7,4.16,22.82,4.2,6.81.04,14.89-3.49,21-3.25,7.45.3,24.97,9.64,30.71.14.21,1.42-.93,3.76.9,4.58,3.21,1.44,49.19,5.44,57.38,6.53,30.59,4.05,64.72,9.06,95,16.36,8.63,2.08,21.85,9.11,30.85,11.15,4.61,1.04,9.84.12,14.55.26l1.66,4.72,6.66-.12-3.73-4.51c6.23,3.4,11.28,5.99,18.47,7.18,4.58.76,7.96-1.66,11.21-1.19.65.09,5.76,5.6,11.2,7.01,7.68,1.98,20.61,2.03,27.64,5.17,7.88,3.52,16.83,15.56,30.5,15.05,4.35-.16,32.11-6.88,35.2-8.33,2.59-1.21,11.58-14.9,12.4-15.47,2.6-1.79,13.31-4.37,18.39-7.87,4.36-3,4.92-11.9,16.48-10.72,3.42.35,2.67,4.01,4.57,4.45,6.76,1.57,34.53-16.12,43.86-18.83,13.79-4.01,28.56-2.23,40.92-5.58,10.53-2.86,19.66-12.94,32.71-10.01l1.27-3.62-3.66-3.38-18.4,2.66,2.95-5.25c-3.93-2.83-7.13-3.92-5.96-9.74,4.88-1.07,2.94,4.96,6.02,6.84,1.9,1.15,4.15-.54,6.04.02,1.42.42,2.78,3.41,3.69,3.63,1.23.31.9-3.84,3.06-4.32,1.89-.42,8.03,2.54,11.19,1.33,1.54,7.18-2.77,2.35-4.5,5.98l19.5.03,1.47,5.99,1.56-6,25.49-.71,1.48-5.27-6-.75c6.88-5.4,14.23,10.7,13.51-6.76l3.78,7.57c11.65-5,27.7-1.21,38.6-4.91,5.57-1.89,23.47-16.55,29.31-19,9.05-3.8,32.25,1.83,27.29-10.64l7.49,4.48c.3-6.26-2.39-8.9,4.62-9.82-2.36-9.17,1.81-24.68-.38-32.71-1.25-4.57-22.83-21.73-19.97-8.47l-2.33-3.76c4.23-14.27,21.04,8.73,22.56,6.76l-1.49-188.99h13.5l-1.52,355.5c-2.58-1.67-7.15-13.87-9.14-14.85-1.1-.54-6.65,4.39-5.86-1.64-4.81,7.83.21,13.34-1.49,19.47l13.47,4.59c2.59,4.46-3.71,6.26-2.95,8.15,1.32,3.25,7.88,2.75,5.98,8.27l-5.97.73,5.99,18.76-10.5-2.98,1.48,8.98-21,1.5.02-4.49,4.48.76c-3.62-4.93-13.52-24.61-4.5-27l-8.99-11.24c6.35.94,9.25-2.84,8.92-8.93-11.86-2.6-2.85-4.84-2.83-5.37.48-11.19-13.11-8.24-13.6-10.5.69-3.99,1.7-5.97,6-5.23l-5.99-4.51,5.99-7.48-13.48,1.49c1.06-8.11-2.71-.65-5.93-5.44l-.86-8.06c-3.71-.82-6.61,3.34-8.22,6,.53.27,2.05-.33,2.95.01l.03,16.48-3.37-1.87-1.12-7.13-4.51,4.51-2.99-7.49,8.98-.05c.42-1.23-.37-3.82.02-4.45-3.01-1.54-11.1-5.84-13.61-3.87-3.14,5.91-1.68,12.81,1.62,18.08l-6,2.3-5.99-16.51-2.99,7.49-3.02-18.71-2.98-.75c-1.25,7.12-21.77-5.21-16.52,10.46h-11.99s-2.27,9-2.27,9l-5.27-8.98-2.99.76,1.52,5.22-11.23-7.51c-.19,6.03-6,5.18-10.45,7.57l-5.3-6.04,1.48,8.98-6.76-2.69c-5.81.31-6.4,28.69-5.21,32.71.04.15,3.87-3.41,3.01.73-6.67,4.29-1.36,19.27-3.03,27l2.99-2.24.03,9.74-2.99-2.24c2.03,18.03-2.75,42.08-.12,59.34.94,6.16,4.25,4.42,4.62,5.9.32,1.29-2.91.16-3.04,1.73-.76,8.75-1.13,23.88-1.14,32.77-.11,61.37,3.86,124.69,5.07,184.74.54,27.04,1.05,54.45-.15,81.5l-8.28-17.99c-6.72-1.57-4,3.96-7.46,5.99,7.6-16.11-17.27-38.1-19.07-48.95-1.36-8.21,3.85-28.82,4.1-38.73.82-31.99-1.36-64.03-.04-96.04l2.37-3.57,6.62,1.29c-13.14-8.98-6.24-32.92-8.81-47.8l7.31-3.16-8.97-2.24,14.95-6.03c-3.1-5.48-10.15,1.44-12.61.66l-2.35-10.41c5.3,2.9,13.28,4.83,14.98-3l-14.82-1.68-1.67-19.32,11.3,4.05,2.18-4.02c-12.82-6.26-15.47-11.66-14.98-25.52l14.98,7.48c3.01-9.71-7.47-8.11-12.01-14.22-4.95-6.68-2.5-14.06-2.97-21.76l14.98,4.48-13.64-17.2,1.64-20.29h7.52s-.02-5.99-.02-5.99l-5.13,1.33-2.37-8.84,8.98-2.25-7.38-2.32c-3.49-3.92.93-12.59,7.41-12.68l-7.5-.73.65-10.61,6.85-2.87-9-1.54,1.5-10.49,6-1.47-8.97-7.52-.22,47.03-11.81,2.47v-12.01s9-1.47,9-1.47c-19.52.21-3.76-14.07-4.5-14.98-.17-.21-3.52-.09-4.32-2.48-1.71-5.12,3.52-12.65-.2-18.55-4.76-2.97-2.79,27.47-2.85,30.78-.06,3.66-3.07,5.57-3.13,5.98-.18,1.23,2.95.36,3,1.73.05,1.8.4,10.63,0,11.02s-10.14.37-10.52,0c-.42-.42.14-9.79.14-11.92l4.36-1.57c-9.23-2.48-2.6-21.2-3.86-28.71-.47-2.8-.58-3.27-3.63-2.81v29.25l-10.59,1.59.09-13.57h-4.49s0,42.73,0,42.73c-19.86,1.88-3.47-27.87-11.98-37.5,2.26,8.19-3.18,7.45-4.51,9.03-1.22,1.45,3.84,1.47,4.57,5.21,1.12,5.74-3.31,14.3-1.48,20.82l-10.59,2.43v-41.29s-3.01-2.21-3.01-2.21v29.25c0,4.09-.03,8.39-.23,12.52l-9.6.31-1-40.21-2.66-1.87-1.53,43.5-10.49-1.51v-31.49s-3.08,31.39-3.08,31.39l-10.41.1-1.47-31.5-1.51,31.5-9.03.74,8.36,2.15c1.93,11.57,2.58,13.63-9.75,11.99l-2.35-35.91-.92,18.55-7.32,2.49c10.66,3,7.03,5.78,5.9,14.88l-10.41.11-1.48-39c-.56,7.1.66,14.83.11,21.84-.79,10.12.2,25.83-.9,36.78-.25,2.49-.68,5.02-1.44,7.42-11.24,4.02-12.66-1.59-11.27-12.04l8.98-.76-9-.73c-.73-10.32-.8-11.1,9-13.49-19.08,3.73-3.67-19.14-11.25-28.51l-2.34,28.38-8.91.11c-3.15-7.65,3.11-12.03,3-12.74-.36-2.43-7.04-7.51-.42-13.56l-4.06-3.71-1.51,30.01-8.84-.18-2.42-8.84-2.15,8.36-10.61.66,1.74-11.78,19.26-2.48-6-.74-2.24-13.47-.74,13.47c-4.55-.76-11.34,2.57-12.76-3.03-7.04,5.53-.45,6.92-.61,12.81-.16,5.94-4.49,4.89-4.64,5.25-.39.9,4.4,12.47,4.17,18.73-.19,5.31-4.01,9.38-4.17,10.51-.18,1.26,2.74-.29,3.14,2.86,1.49,11.63-1.69,8.35-10.65,6.83,1.05-6.61-.11-13.38.06-20.17.06-2.39,3.13-4.14,2.93-5.26-.15-.86-11.17-6.26.01-13.5-5.35-.3-4.79-4.61-4.52-9.03l-1.47,9h-13.52s-.74-10.53-.74-10.53l-.74,10.53c-14.42,3.04-15.17-13.85-1.52-14.99h-9s-.73-18.01-.73-18.01l-2.29,17.96-7.46.05,7.5,1.47c3.55,19.51-8.21,14.93-20.02,22.75-17.68,11.7-31.31,50.77-33.83,71.19-.2,1.61-1.3,5.44,1.32,5.06,6.95-26.8,12.83-56.69,35.19-75.07l6.83-1.4-7.49,3c5.86,3.66,1.14,3.69-.04,8.97l-5.97-2.97c3.94,6.57-2.75,7.95-5.59,13.14-5.49,10-11.1,21.44-13.93,32.57l21.8-38.21,12.69,36.88c-5.05,24.08-23.87,43.76-26.94,69.6l20.98-42v42.75c0,2.13-7.06,12.45-6.04,16.48l4.52-2.22,1.5,10.48c1.38-13.87,1.63-28.87,10.5-40.48l-7.5,47.98,9-37.48-10.51,57.72,4.5-8.21,1.54,10.5,2.97-1.52-3.02,35.15,4.52.87,1.53-40.5,5.97,7.49c6.89-5.83-8.63-56.76,13.5-56.99l2.05,96.8,2.44,2.19,1.5-11.99v12.77s3.01,2.21,3.01,2.21l3.32-109.93,8.68-4.07,1.49,11.99c1.19-9.62,1.04-18.26,13.52-17.97-1.84,49.95-6.82,104.18,3.18,153.6.53,2.61.36,6.36,4.32,5.37l-7.55-57.68,3.05-116.31,22.52,1.5c-1.34,10.51,3.73,23.53-4.52,31.49,9.67-1.26,2.73,10.74-1.49,15l5.98-1.49,1.52,13.49,24.1-23.13,18.67-8.38.09,15.05-6.85,2.95c8.79-.34,7.92,8.56,8.37,15.06-19.21,5.53-38.86,23.6-50.36,39.69-3.2,4.48-2.98,10.09-10.52,13.53,1.94.85,12.92-4.82,13.33-5.41.18-.26-1.63-3.3-.28-5.37,5.99-9.17,31.03-18.82,42.44-18.46l-35.99,18.74,2.99,1.48-5.99,8.25,25.48-15.75-10.49,11.24,8.26-5.97.72,2.21-29.97,30.04,35.99-23.24-17.26,25.47,24.01-26.96c8.76-.06-9.26,20.35-9.73,21.74l.72,2.21,9.78-9.72-9.78,29.22c7.18-10.78,7.96-26.49,18.74-34.49l1.57,31.97-9.06,7,8.99-1.51-26.95,7.6,1.44,7.42c-3.7-1.56-5-3.98-2.97-7.49l-5.09.16-4.14,11.62c-8.37,2.02-20.97-4.55-23.22,6.31l-6.56-.11,4.49-5.97c-4.27-.98-8.68,1.46-12.58,1.31-10.24-.39-33.64-3.91-42.15-2.82-2.4.31-8.88,8-21.06,8.97-32.21,2.56-77.35-5.96-110.9,2.87-1.32.35-4.58-1.93-5.3-1.35l-1.53,6,6.05,2.31-3.94,9.79-6.58-1.6,5.98-1.49-6.11-6.87,3.12-6.6c-3.96-1.51-10.18,1.41-12.85,1.31-.85-.03.08-2.95-2.76-2.88-4.74.11-5.21,4.18-6.48,4.49-19.97,4.92-25.24-17.38-45.42-4.4l1.52,4.45c-10.97,2.29-22.58-1.16-32.27-1.46-6.24-.2-32.47,1.05-35.68-.29-2.53-1.06-5.03-6.72-11.26-8.35-15.23-3.99-13.43,5.77-20.51,11.64-4.32,3.58-14.89,7.46-17.99,10.51-2.07,2.05-1.92,6.91-2.45,7.29-1.91,1.35-11.37-1.33-14.81,1.68l4.51-31.49-7.51,33-26.14,2.78-5.36-41.79v41.25c-12.07,1.76-12.67,9.87-18.1,14.9-19.16,17.8-34.54,37.9-53.14,56.44-10.24,10.21-9.87,21.09-29.26,20.93,12.45,7.63,3.77,5.7,1.43,8.49-4.27,5.09-6.26,11.42-9.68,16.98l-2.22-19.48-3.19,28.32-5.83.18c4.41,10.35-1.45,7.93-5.46,14.78-8.92,15.26-9.83,32.01-29.03,36.2l2.97-35.99c-3.14-4.25-5.68,47.15-7.08,50.69-1.1,2.77-22.07,25.55-22.85,28.38-.42,1.52.08,3.36-.04,4.94l2.97-1.52-2.24,7.5c-6.76-7.37-2.37-15.38-2.26-23.99-2.82-3.68-4.15,22.13-4.83,23.67-2.45,5.55-16.5,18.67-19.79,22.96-7.1,9.24-15.48,18.05-20.38,28.37l-3-.76.77-8.25-2.33,8.93-14.92.08,5.25-48.01-8.25,48.02h-18.01s-2.24-87.02-2.24-87.02l-2.24,87.03-12-.02.71-2.96,5.27-.76c-6.99-7.99-15.03-8.76-25.49-8.27l5.98-35.99c-7.14,3.18-7.65,34.68-8.98,36.01l-95.36-4.61-3.09,16.69-249.57,1.42,16.56-693.7c1.62-51.06-1.16-102.26-1.61-153-.41-46.26.42-92.56.06-138.81h6ZM195,154.48c-1.19-3.11-4.15-5.03-7.49-4.46l7.49,4.46ZM223.5,160.48c-1.33-4.18-4.29-2.37-7.49-1.46l7.49,1.46ZM370.49,225.01l-4.46,2.24,2.22,2.22,2.24-4.46ZM356.98,259.49c-.72-2.61,1.81-9.91-1.46-10.48.75,2.53-1.85,9.72,1.46,10.48ZM1435.49,280.51l-10.49-1.49,1.49,5.97-7.11-1.16-1.88,2.64c3.43,3.3,21.69-2.64,17.98-5.97ZM730.49,285.01l-4.46,2.24,2.22,2.22,2.24-4.46ZM1513.49,300.02h-5.98s0,2.97,0,2.97l5.98-2.97ZM1504.49,301.51h-4.48s0,4.48,0,4.48l3.75-1.48.73-3ZM1324.49,313.51h-2.98s0,7.49,0,7.49l2.97-7.49ZM1351.48,326.99c-.71-3.97,3.41-11.36-1.46-13.48l1.46,13.48ZM1294.52,315.01l-1.48,3.75,2.21,2.2,2.21-2.2-2.93-3.75ZM1336.52,321l2.97-2.27-2.24-3.69-2.21,2.21,1.48,3.75ZM1078.49,318.01h-5.98v2.98h5.98v-2.98ZM1339.49,332.99l-2.24-4.46-2.22,2.22,4.46,2.24ZM1147.5,335.98l3.75,1.48,2.21-2.21-3.69-2.24-2.27,2.97ZM1099.5,339.75c-1.77,6.65,1.3,20.2,0,27.75,3.05-9.54,3.16-20.06,2.98-30-.94-.04-2.84,1.73-2.98,2.25ZM1156.48,350.99l-.72-8.98-5.26,4.45,5.97,4.53ZM1198.48,359.99c-.63-2.29,1.7-8.83-1.46-8.98.63,2.29-1.7,8.83,1.46,8.98ZM1135.51,361.49l-1.49-8.99-.24,10.26-5.77,3.21,22.48-5.96-14.98,1.48ZM1171.49,360.01h-2.98s0,5.99,0,5.99l2.97-2.27v-3.72ZM1087.49,383.99l-.73-16.48-2.26,14.28,2.99,2.2ZM1184.99,369.01l-7.48,5.98h7.5s-.02-5.98-.02-5.98ZM1190.99,581.99l.76-49.51c-1.46,15.72-4.27,31.43-3.75,47.3l3,2.21Z"/>
    <path d="M0,1383h61.51s-.02-5.99-.02-5.99l-5.97,1.49c-1.81-8.58,5.94-2.42,10.58-3.62,4.67-1.2,3.5-8.83,13.38-3.15l-1.49,5.28-5.98-2.99-1.5,8.97h12s-3-5.19-3-5.19l10.5-2.31-2.29-2.98,1.58-3.01c20.95,4.54-.87,3.66-.78,13.51h23.25c.49,0,7.91-4.41,8.37-5.13l8.8-210.26,202.57-.6c1.71,1.54-8.51,14.28-9.32,14.64-5.15,2.3-15.03-2.96-19.13,4.1l14.96-.73c-2.39,7.57-9.35,11.74-13.63,17.24-10.26,13.18-17.94,21.39-29.38,34.22-2.63,2.95-4.4,10.77-7.92,13.84s-6.93,1.91-11.38,6.62c-4.15,4.4-13.45,23.25-17.71,29.54-5.03,7.43-25.28,30.61-23.23,38.48,1.57,6.02,9.54,1.37,8.73,7.04l-11.23-7.47-26.21,26.23,4.54,1.52,1.45-3.77c7.2-2.58.45,8.62-.11,8.97-1.21.74-4.64-1.71-5.98-.73-3.53,2.56-14.6,12.97-17.95,16.48-2.07,2.17-2.93,8.36-5.54,9.85-6.14,3.51-19.15-.04-31.94,5.92l-.03-4.46c-12.89-3.4-21.93,3.31-35.17,4.51-30.29,2.73-64.58-2.14-95.3-.05v-6ZM174.01,1263.01l-8.11-1.24-2.38,4.22h8.27s2.23-2.98,2.23-2.98ZM247.51,1264.51c-6.72,0-17.65-5.05-22.51,1.47,5.52-2.61,21.64,5.79,22.51-1.47ZM202.5,1318.52c-2.79-.41-5.2-.01-6,2.96,2.79.41,5.2.01,6-2.96ZM172.49,1327.49l-.73-3-3.75-1.48v4.48s4.48,0,4.48,0ZM140.99,1332.01h-2.98v4.48h2.98v-4.48ZM133.49,1335.01c-11.2.51,2.39,7.48,8.99,7.49v-4.49s-8.97,1.49-8.97,1.49l-.02-4.5ZM146.99,1350.01h-4.48v2.98h4.48v-2.98Z"/>
    <path d="M382.49,1002.01l-126.67,2.88c-5.33,11.56-1.87.49-2.32.12-3.11-2.53-14.52,2.79-15.75,7.45-.12-11.71-32.83-4.28-37.2-1.52-1.77,1.12-.88,4.16-2.56,5.24-8.52,5.47-11.4-.44-10.52,15.09l49.53-.76c-3.06.7-12.13,9.62-13.4,9.85-4.03.73-9.73-7.05-15.87,6.62-3.96-4.18-10.32-1.57-6.72-5.98l-33.02,1.48v10.51c-4.14,1.97-4.58-3.12-5.22-3.01-8.64,1.55-16.57,19.45-27.76,15.01l5.98,10.49-7.48,1.49,2.46-74.77,246.53-.21ZM182.99,1031.99l-2.24-4.46-2.23,2.24v2.21s4.47,0,4.47,0Z"/>
    <path d="M1382.99,680.99c-3.99-2-12.67-13.72-13.46-17.3-.27-1.21-1.44-8.69-1.49-9.24-.49-6.1.25-12.35-.05-18.46,33.72,1.09.89-6.55-1.19-13.04l-1.79-31.95,22.24,6.92-4.25,83.07Z"/>
    <path d="M1165.31,398.82c-1.6,1.21-6.11-1.44-5.8,1.67l7.4.12,1.59,25.39c-10.13-2.02-15.41,15.85-22.47,22.5-3.44-14.35-20.81-48.01,6.77-46.57l3.69,27.07c-.91-8.41,1.59-16.49,1.66-24.83.04-4.66-6.52-11.55.21-14.68,10.5-4.88,9.3,7.56,6.96,9.33Z"/>
    <path d="M1386,590.25c-.03.71,2.73,2.64-1.47,3.73l-4.53-5.24,3.79-3.79-17.31-8.19-1.47-15.76,18,2.23c-3.69-14.14-22.73,2.44-18.02-17.25,8.25.58,21.88-2.52,21.03,9l2.91-3.8,3.87.75-3.78,30.04v-17.27s-3.02-2.22-3.02-2.22c-.26,9.21.35,18.53,0,27.75Z"/>
    <path d="M1178.98,604.49c-4.74-29.01-3.98-58.52-5.24-87.84l6.74-6.65-1.5,94.49Z"/>
    <path d="M1363.5,622.5c-18.91-9.94-13.55-16.97-13.49-35.99l13.49,3.74v32.25Z"/>
    <path d="M1181.8,390.18l-1.29,35.83h-9.02s-1.2-35.11-1.2-35.11c1.58-4.53,8.24-1.25,11.51-.72Z"/>
    <path d="M1279.51,554.99l-.02,10.49c-14.55-1.19-26.04,8.62-38.98,13.5,11.55-9.17,22.44-24.74,39.01-23.99Z"/>
    <path d="M1237.5,488.25l3.76-2.24,8.26.76c-2.03,9.8,1.08,21.27-12.02,23.23v-21.75Z"/>
    <path d="M1168.5,456v21c0,.62-9,4.08-9.76,7.49-1.35.05.93-24.54.98-26.77l8.78-1.73Z"/>
    <polygon points="1222.27 398.77 1216.48 401.25 1222.51 401.99 1222.51 414.01 1213.49 414.01 1212.63 389.95 1221.11 389.15 1222.27 398.77"/>
    <path d="M353.99,1032.02c-1.91,3.68-9.07,1.72-12.06,2.31-.87.17-.43,3.77-3.67,3.86-2.98.08-14.53-4.68-20.97-4.75-9.29-.09-19.57,6.28-27.79-1.42h64.49Z"/>
    <path d="M1364.98,652.5c-7.82-7.6-21.5,6.37-17.33-12.11l15.88-2.17,1.45,14.28Z"/>
    <path d="M1345.48,609c-11.68-6.09-9.13-12.04-8.99-24.01l10.31,2.37-1.32,21.63Z"/>
    <path d="M1141.5,507v-29.25c0-2.45,2.68-10.64,5.98-11.25-4.12,13.49,5.55,29.67-5.98,40.5Z"/>
    <path d="M1288.48,629.99c-1.31-4.93-1.52-37.17,3.74-35.98,6.48,1.47.25,30.6-3.74,35.98Z"/>
    <path d="M1390.5,674.25c-.14,1.61-4.77,5.88-1.53,10.52l-2.96,2.22,4.49-62.99c-1.06,16.26,1.43,34.2,0,50.25Z"/>
    <path d="M1390.51,375c-2.1,9.11,2.94,26.82-10.56,15.48l.05-15.48h10.52Z"/>
    <polygon points="1361.98 574.5 1350.73 570.02 1350.01 558 1361.29 560.96 1361.98 574.5"/>
    <path d="M1169.99,498.01c2.2,11.54-2.81,16.63-10.47,23.99-1.01-8.2,1.64-21.46,10.47-23.99Z"/>
    <polygon points="1264.29 496.31 1252.52 501 1252.49 485.99 1263.1 486.65 1264.29 496.31"/>
    <path d="M1293.01,401.99l-.2,11.81c-16.18,6.59-16.52-16.64.2-11.81Z"/>
    <polygon points="1249.51 458.99 1249.51 471.01 1238.15 469.6 1237.49 458.99 1249.51 458.99"/>
    <path d="M259.49,1032.01l15.62-3,5.37,5.99c-7.14-5.23-7.73-.18-8.56-.09-7.61.87-15.13.76-22.72,1.43l-1.7-4.32c7.27,1.21,7.98-1.59,11.98-6.01v6Z"/>
    <polygon points="1180.49 456 1180.26 472.25 1173.01 474.01 1171.74 460.1 1174.51 456.75 1180.49 456"/>
    <polygon points="1207.23 496.24 1195.51 500.99 1197.1 486.09 1206.05 485.12 1207.23 496.24"/>
    <path d="M1363.51,346.49c.43.42.43,11.59,0,12.01-3.6,3.6-18.3-2.26-10.6-11.35,1.24-.91,10.22-1.04,10.6-.66Z"/>
    <path d="M1249.51,443.99c.43.42.43,11.59,0,12.01-3.6,3.6-18.3-2.26-10.6-11.35,1.24-.91,10.22-1.04,10.6-.66Z"/>
    <polygon points="1279.5 444 1278.1 455.35 1267.5 456 1268.9 444.65 1279.5 444"/>
    <path d="M1346.87,558.13c.04,2.12.56,11.45.14,11.87s-9.93.5-11.37-1.4c-4.76-6.3,3.87-14.75,11.23-10.47Z"/>
    <polygon points="1279.5 400.5 1268.16 399.1 1268.91 389.16 1278.85 389.91 1279.5 400.5"/>
    <polygon points="1322.99 541.51 1322.99 527.99 1332.1 528.66 1332.84 540.1 1322.99 541.51"/>
    <polygon points="1321.5 387 1310.91 386.35 1310.16 376.41 1320.1 375.66 1321.5 387"/>
    <polygon points="1363.51 359.99 1363.51 372.01 1351.49 372.01 1352.85 362.09 1363.51 359.99"/>
    <path d="M1292.77,375.24c5.08,17.52-15.79,16.99-9.6-.32l9.6.32Z"/>
    <path d="M1181.99,489.01c-3.6,8.3,2.77,17.81-7.47,20.98l-1.52-16.9,8.99-4.08Z"/>
    <path d="M1381.5,541.48l-16.32-1.66-.19-8.83c10.69-1.68,12.42,1.88,16.5,10.49Z"/>
    <path d="M1361.77,386.77c-8,4.95-14.4-6.97-8.86-11.11,8.75-6.53,14.28,7.75,8.86,11.11Z"/>
    <path d="M1239.19,440.82l-.2-10.32,11.35,1.41c2.99,11.09-1.86,12.15-11.15,8.92Z"/>
    <polygon points="1318.51 527.99 1318.5 543.01 1310.91 542.34 1309.49 527.99 1318.51 527.99"/>
    <polygon points="1264.26 459.24 1263.84 469.6 1253.99 471.01 1254.67 458.92 1264.26 459.24"/>
    <polygon points="1304.85 528.13 1305.84 541.6 1297.5 543.01 1295.99 529.53 1304.85 528.13"/>
    <path d="M1387.26,405.25c4.17,27.98-10.47,19.33-7.25-1.74l7.25,1.74Z"/>
    <polygon points="1192.49 485.99 1192.28 501.53 1185.01 504.01 1185.22 488.47 1192.49 485.99"/>
    <path d="M1321.28,403.72c.57.94.51,9.7.12,10.18l-10.38,1.59v-13.5c.61-.62,9.57.57,10.27,1.73Z"/>
    <path d="M1348.51,374.99c.43.42.43,11.59,0,12.02-.37.37-10.14.37-10.52,0-.43-.42-.43-11.59,0-12.02.37-.37,10.14-.37,10.52,0Z"/>
    <path d="M1335.01,374.99c.38.37.3,9.21-.67,10.59l-8.38,2.27c-2.05-1.55-1.92-12.4-1.46-12.86.37-.37,10.14-.37,10.51,0Z"/>
    <path d="M1306.51,374.99c.43.42.43,11.59,0,12.02-.37.37-10.14.37-10.52,0-.43-.42-.43-11.59,0-12.02.37-.37,10.14-.37,10.52,0Z"/>
    <path d="M1293,531l-1.82,13.17-8.67,1.82c-.24-8.01.61-17.52,10.49-14.99Z"/>
    <path d="M1264.38,413.89c-.32.37-8.49,2.02-9.68.19-5.27-8.1,4.55-16.99,9.14-10.67.93,1.27,1.16,9.77.54,10.48Z"/>
    <path d="M1238.99,427.5c-.49-.48.33-8.46,0-10.51l11.35,1.41-.79,9.95c-2.14-.79-10.18-.48-10.56-.85Z"/>
    <path d="M1321.51,611.99c.43.42.43,11.59,0,12.02-.37.37-10.14.37-10.52,0-.43-.42-.43-11.59,0-12.02.37-.37,10.14-.37,10.52,0Z"/>
    <path d="M1362.01,443.99c.43.42.43,11.59,0,12.02-.37.37-10.14.37-10.52,0-.43-.42-.43-11.59,0-12.02.37-.37,10.14-.37,10.52,0Z"/>
    <path d="M1264.51,443.99c.43.42.43,11.59,0,12.02-.37.37-10.14.37-10.52,0-.43-.42-.43-11.59,0-12.02.37-.37,10.14-.37,10.52,0Z"/>
    <path d="M1390.51,359.99c4.81,16.93-15.34,17.61-9.85,1.41l9.85-1.41Z"/>
    <path d="M1279.51,430.49c.37.37.37,10.14,0,10.52-.51.51-9.8-.36-12.02,0l1.41-9.85c1.29-.95,10.23-1.04,10.6-.66Z"/>
    <path d="M1279.51,416.99c.37.37.37,10.14,0,10.52-.51.51-9.8-.36-12.02,0l1.41-9.85c1.29-.95,10.23-1.04,10.6-.66Z"/>
    <path d="M1348.51,443.99c.38.38.29,9.32-.66,10.6l-9.85,1.41c.36-2.21-.51-11.51,0-12.02.37-.37,10.14-.37,10.52,0Z"/>
    <path d="M1333.51,485.99c4.81,16.93-15.34,17.61-9.85,1.41l9.85-1.41Z"/>
    <path d="M1362.01,485.99c.38.38.29,9.32-.66,10.6l-9.85,1.41c.36-2.21-.51-11.51,0-12.02.37-.37,10.14-.37,10.52,0Z"/>
    <path d="M1376.99,486.01l-1.78,10.18c-10.44,5.14-11.04-1.03-10.22-10.2l12,.02Z"/>
    <path d="M1264.47,400.46c-20.21,3.47-7.14-20.97.91-10.51,1.19,1.54-1.72,7.85-.91,10.51Z"/>
    <polygon points="1390.5 512.99 1391.98 526.5 1381.73 524.78 1380.19 514.7 1390.5 512.99"/>
    <path d="M1279.51,401.99c4.81,16.93-15.34,17.61-9.85,1.41l9.85-1.41Z"/>
    <path d="M1306.51,443.99c.51.51-.36,9.8,0,12.02l-9.11-.66c-7.48-9.37,4.99-15.43,9.11-11.35Z"/>
    <path d="M1333.51,443.99c.51.51-.36,9.8,0,12.02l-9.11-.66c-7.48-9.37,4.99-15.43,9.11-11.35Z"/>
    <path d="M1320.01,443.99c4.81,16.93-15.34,17.61-9.85,1.41l9.85-1.41Z"/>
    <polygon points="1336.49 541.51 1336.49 529.49 1345.59 530.16 1346.34 540.1 1336.49 541.51"/>
    <polygon points="1282.49 456.01 1282.49 443.99 1291.59 444.66 1292.34 454.6 1282.49 456.01"/>
    <path d="M1264.51,416.99c2.37,2.36-.74,17.66-9.11,11.36-1.91-1.44-1.82-10.94-1.4-11.36.37-.37,10.14-.37,10.51,0Z"/>
    <path d="M1375.51,401.99l-.03,15.01c-12.58-.47-13.84-19,.03-15.01Z"/>
    <path d="M1264.51,430.49c3.83,3.88-1.86,15.92-10.51,12.01.35-2.21-.52-11.5-.01-12.01.37-.37,10.15-.37,10.52,0Z"/>
    <polygon points="1387.27 460.74 1388.98 477 1379.93 472.99 1380.01 459.01 1387.27 460.74"/>
    <polygon points="1346.97 497.97 1337.11 496.57 1338.1 486.11 1347.88 487.45 1346.97 497.97"/>
    <path d="M1309.5,498.01c-2.38-2.38.75-17.65,9.11-11.36,7.24,5.45-4.31,16.16-9.11,11.36Z"/>
    <path d="M1277.97,459.02c3.76,3.65-.68,15.15-9.05,11.36l-1.43-11.39c2.11.37,9.86-.57,10.48.03Z"/>
    <path d="M1333.51,458.99v12.01s-8.84-.19-8.84-.19c-2.8-11.73-4.24-12.94,8.84-11.83Z"/>
    <path d="M1366.5,372.01c-2.38-2.38.75-17.65,9.11-11.36,7.24,5.45-4.31,16.16-9.11,11.36Z"/>
    <path d="M1375.51,458.99l-.02,13.5-8.65-1.82c-3.31-9.46-1.74-13.41,8.67-11.68Z"/>
    <polygon points="1348.5 459.01 1346.91 470.9 1337.99 471.01 1337.99 458.99 1348.5 459.01"/>
    <polygon points="1291.48 514.6 1290.89 526.59 1282.51 528 1283.17 514.49 1291.48 514.6"/>
    <polygon points="1236 403.52 1234.49 415.51 1225.74 413.77 1226.92 402.62 1236 403.52"/>
    <polygon points="1320 459.01 1318.41 470.9 1309.49 471.01 1309.49 458.99 1320 459.01"/>
    <path d="M1208.82,413.81c-1.44,1-6.55-.2-8.83.2v-12.01s9.89,1.41,9.89,1.41c1.34,1.67-.6,10.08-1.06,10.4Z"/>
    <polygon points="1375.51 374.99 1374.76 389.99 1366.69 386.82 1366.49 374.99 1375.51 374.99"/>
    <path d="M1347.01,514.49c.44.44.48,9.92-1.43,11.39-6.59,5.08-12.67-7.77-9.08-11.39.37-.37,10.14-.37,10.51,0Z"/>
    <polygon points="1306.23 608.74 1297.51 611.99 1299.01 595.49 1305.84 596.91 1306.23 608.74"/>
    <polygon points="1198.5 390.01 1209.05 389.12 1209.84 399.09 1201.41 399.83 1198.5 390.01"/>
    <path d="M1348.49,402v12.01s-9.08-.67-9.08-.67c-4.75-7.72,1.57-12.08,9.08-11.35Z"/>
    <path d="M1375.26,445.74c3.37,5.47-2.68,14.26-8.86,9.61-7.33-5.51,4.42-16.83,8.86-9.61Z"/>
    <path d="M1362.01,458.99c.44.44.49,9.89-1.45,11.38-6.04,4.62-13-7.43-9.06-11.39.37-.37,10.14-.37,10.52,0Z"/>
    <polygon points="1306.51 401.99 1306.48 415.5 1296.01 413.99 1297.49 401.99 1306.51 401.99"/>
    <path d="M1185,469.51l.67-12.08c8.59-5.24,9.87,3.89,7.67,10.67l-8.34,1.41Z"/>
    <path d="M1324.69,430.7c4.71-3.35,14.54,2.4,9.66,8.9-5.52,7.34-16.3-4.17-9.66-8.9Z"/>
    <path d="M1198.61,454.4l-.12-10.41,9.85,1.41c2.61,10.62-.55,11.37-9.73,9Z"/>
    <path d="M1235.98,390.09v10.4s-9.82-1.39-9.82-1.39c-2.7-9.57.8-12.84,9.82-9.01Z"/>
    <path d="M1293.01,416.99c.37.37.37,10.15,0,10.52s-10.15.37-10.52,0-.37-10.15,0-10.52,10.15-.37,10.52,0Z"/>
    <polygon points="1321.51 389.99 1320.84 399.09 1312.41 399.83 1309.51 390.01 1321.51 389.99"/>
    <path d="M1335.01,403.49c.37.37.37,10.15,0,10.52s-10.15.37-10.52,0-.37-10.15,0-10.52,10.15-.37,10.52,0Z"/>
    <path d="M1376.99,524.99l-10.54-.65c-6.83-13.7,14.64-14.35,10.54.65Z"/>
    <path d="M1213.58,444.09l8.26,1.31-.74,9.95c-11.31,3-8.99-3.33-7.52-11.26Z"/>
    <polygon points="1362.01 500.99 1361.35 510.1 1351.49 511.51 1350 501.02 1362.01 500.99"/>
    <path d="M1347.01,500.99c.37.37.37,10.15,0,10.52s-10.15.37-10.52,0-.37-10.15,0-10.52,10.15-.37,10.52,0Z"/>
    <path d="M1306.51,458.99c6.7,6.62-13.99,22.36-10.52,0,2.05.34,10.01-.5,10.52,0Z"/>
    <path d="M1390.51,485.99c.37.37.37,10.15,0,10.52s-10.15.37-10.52,0-.37-10.15,0-10.52,10.15-.37,10.52,0Z"/>
    <path d="M1333.51,500.99c.37.37.37,10.15,0,10.52s-10.15.37-10.52,0-.37-10.15,0-10.52,10.15-.37,10.52,0Z"/>
    <polygon points="1362.01 401.99 1362.01 414.01 1352.91 413.29 1353 401.99 1362.01 401.99"/>
    <path d="M1293.01,389.99c.37.37.37,10.15,0,10.52s-10.15.37-10.52,0-.37-10.15,0-10.52,10.15-.37,10.52,0Z"/>
    <path d="M1348.51,389.99c.37.37.37,10.15,0,10.52s-10.15.37-10.52,0-.37-10.15,0-10.52,10.15-.37,10.52,0Z"/>
    <polygon points="1306.51 430.49 1306.51 441.01 1295.99 441.01 1297.4 431.15 1306.51 430.49"/>
    <polygon points="1293.01 441.01 1282.49 441.01 1282.49 430.49 1291.6 431.15 1293.01 441.01"/>
    <polygon points="1209.01 430.49 1209.01 441.01 1199.15 439.6 1198.49 430.49 1209.01 430.49"/>
    <path d="M1168.49,430.51c.06,7.71-1.87,15.09-10.48,16.48-1.37-8.62,2.23-14.13,10.48-16.48Z"/>
    <path d="M1305,485.99l.84,10.55-8.45.81c-3.47-9.68-2.98-13.01,7.61-11.36Z"/>
    <polygon points="1306.51 389.99 1306.51 400.51 1296.65 399.1 1295.99 389.99 1306.51 389.99"/>
    <polygon points="1348.51 430.49 1348.51 441.01 1337.99 441.01 1339.4 431.15 1348.51 430.49"/>
    <polygon points="1335.01 427.51 1324.49 427.51 1324.49 416.99 1333.6 417.65 1335.01 427.51"/>
    <polygon points="1362.01 430.49 1362.01 441.01 1352.15 439.6 1351.49 430.49 1362.01 430.49"/>
    <rect x="1171.49" y="428.99" width="9.02" height="12.02"/>
    <polygon points="1362.01 416.99 1362.01 427.51 1352.15 426.1 1351.49 416.99 1362.01 416.99"/>
    <path d="M1322.99,525.01c-4.45-4.45,3.78-17.16,9.86-9.11,5.7,7.54-7.21,11.76-9.86,9.11Z"/>
    <path d="M1375.15,509.63c-8.16,9.79-19.79-14.27.44-7.93,1.62,1.19.06,7.32-.44,7.93Z"/>
    <path d="M1348.51,416.99c4.45,4.45-3.78,17.16-9.86,9.11-5.7-7.54,7.21-11.76,9.86-9.11Z"/>
    <path d="M1310.99,609.01v-12.01c6.98-1.15,9.3,3.53,10.39,9.64l-10.39,2.37Z"/>
    <path d="M1306.51,416.99c4.45,4.45-3.78,17.16-9.86,9.11-5.7-7.54,7.21-11.76,9.86-9.11Z"/>
    <path d="M1264.51,474l-1.41,8.35c-16.23,5.01-15.31-12.66,1.41-8.35Z"/>
    <path d="M1249.51,474l-1.41,8.35c-16.23,5.01-15.31-12.66,1.41-8.35Z"/>
    <path d="M1195.29,430.73c5.09,17.36-14.79,11.06-9.63,1.28,1.49-2.83,7.09-3.2,9.63-1.28Z"/>
    <polygon points="1363.51 389.99 1362.05 399.85 1351.5 398.99 1351.5 390.01 1363.51 389.99"/>
    <path d="M1324.49,400.51c-4.45-4.45,3.78-17.16,9.86-9.11,5.7,7.54-7.21,11.76-9.86,9.11Z"/>
    <path d="M1360.51,525.01c-4.45,4.45-17.16-3.78-9.11-9.86,7.54-5.7,11.76,7.21,9.11,9.86Z"/>
    <path d="M1332.01,568.51c-.48.47-7.15-.31-9.02,0v-12.02s8.36,1.41,8.36,1.41c.95,1.29,1.04,10.23.66,10.6Z"/>
    <polygon points="1234.5 443.99 1234.49 456 1225.73 454.27 1226.16 445.4 1234.5 443.99"/>
    <polygon points="1332.01 584.99 1331.99 598.49 1325.38 597.18 1323.01 585.01 1332.01 584.99"/>
    <path d="M1361.77,474.22l-1.18,8.13c-9.59,2.79-11.55-.12-7.7-9.23l8.87,1.1Z"/>
    <path d="M1320.01,430.49c.48.48-.34,8.48,0,10.52-20.17,4.6-6.84-17.24,0-10.52Z"/>
    <path d="M1304.98,514.52c6.22,6.36-9.48,21.47-10.4.7.31-2.48,10.04-1.07,10.4-.7Z"/>
    <path d="M1209,459.02c-1.77,2.28.39,8.74,0,8.97-1.26.75-8.11-.47-10.51.02.35-2.08-.52-9.95.02-10.51.94-.99,8.32,1.71,10.5,1.52Z"/>
    <path d="M1333.51,611.99c2.82,2.81-1.45,16.09-7.56,11.38-6.57-5.06,1.88-17.06,7.56-11.38Z"/>
    <path d="M1320.01,416.99c2.99,2.94-.46,16.85-9.88,9.06-3-7.16,6.21-12.67,9.88-9.06Z"/>
    <path d="M1234.51,458.99c.38.37.25,9.11-.7,10.58-8.17,5.72-10.68-8.22-8.31-10.59.32-.32,8.69-.32,9.02,0Z"/>
    <path d="M1375.51,430.49l-.02,12-8.88-1.59c-.56-10.28-2.14-11.48,8.9-10.41Z"/>
    <path d="M1387.49,446.99c-10.18-1.37-6.19-7.72-8.99-14.97l8.25,2.98.74,11.99Z"/>
    <polygon points="1360.4 546.11 1361.99 554.99 1350.66 553.59 1349.99 546 1360.4 546.11"/>
    <path d="M1336.69,553.33c-4.12-5.73,5.53-12.93,9.66-7.43,5.85,7.79-6.8,11.41-9.66,7.43Z"/>
    <path d="M1308,615.02l-.65,10.58-9.84,2.89c-.69-6.05,3.4-13.82,10.49-13.47Z"/>
    <path d="M1291.51,458.99c.37.37.37,10.15,0,10.52-.32.32-8.7.32-9.02,0-.37-.37-.37-10.15,0-10.52.32-.32,8.7-.32,9.02,0Z"/>
    <path d="M1360.51,529.49c.37.37.37,10.15,0,10.52-.32.32-8.7.32-9.02,0-.37-.37-.37-10.15,0-10.52.32-.32,8.7-.32,9.02,0Z"/>
    <polygon points="1207.49 471 1207.39 481.4 1198.51 482.99 1198.73 472.73 1207.49 471"/>
    <path d="M1222.51,430.49c.37.37.37,10.15,0,10.52-.32.32-8.7.32-9.02,0-.37-.37-.37-10.15,0-10.52.32-.32,8.7-.32,9.02,0Z"/>
    <path d="M1318.51,500.99c.37.37.37,10.15,0,10.52-.32.32-8.7.32-9.02,0-.37-.37-.37-10.15,0-10.52.32-.32,8.7-.32,9.02,0Z"/>
    <path d="M1252.5,512.98c3.81-5.1,31.13-18.54,22.6-5.14l-22.6,5.14Z"/>
    <polygon points="1318.5 556.49 1318.48 568.5 1309.51 566.98 1310.15 557.9 1318.5 556.49"/>
    <polygon points="1291.5 496.51 1282.31 494.34 1282.58 486.08 1290.85 487.4 1291.5 496.51"/>
    <path d="M1237.52,540c-2-9.68,3.36-14.32,10.47-19.5.18,8.08-4.79,14.39-10.47,19.5Z"/>
    <polygon points="1306.3 556.69 1306.49 566.99 1297.61 565.4 1297.51 555.01 1306.3 556.69"/>
    <path d="M1318.51,514.49c.48.48-.33,8.48,0,10.52-17.22,2.22-7.23-17.68,0-10.52Z"/>
    <path d="M1346.99,574.52c2.17,5.56-8.5,10.08-11.32,6.05l-.68-7.57,12,1.52Z"/>
    <path d="M1222.51,427.51c-4.52,4.48-12.69-2.69-9.01-10.51l8.35,1.41c.89,1.22,1,8.77.66,9.11Z"/>
    <path d="M1208.98,427.48c-5.77,5.57-13.47-6.65-8.99-9.77,6.59-4.58,13.92,5.01,8.99,9.77Z"/>
    <path d="M1333.51,473.99c4.71,4.75-4.56,14.48-9.87,7.62-5.32-6.87,7.88-9.63,9.87-7.62Z"/>
    <path d="M1291.27,501.23c6.11,10.17-13.24,15.53-8.77-1.73.52-.54,8.15.71,8.77,1.73Z"/>
    <path d="M1337.99,483.01c-4.71-4.75,4.56-14.48,9.87-7.62,5.32,6.87-7.88,9.63-9.87,7.62Z"/>
    <path d="M1376.67,477.25c3.53,5.76-9.66,8.06-11.54,3.32-3.34-8.41,9.04-7.4,11.54-3.32Z"/>
    <path d="M1220.99,482.99l-8.87-1.6c-.22-4.87-1.95-9.47,3.9-10.06l3.59,1.77,1.38,9.89Z"/>
    <path d="M1291.5,483.01c-3.87,3.89-14.07-4.91-7.61-9.86,6.9-5.28,9.61,7.85,7.61,9.86Z"/>
    <polygon points="1234.51 416.99 1234.51 427.51 1225.51 427.49 1227.1 417.11 1234.51 416.99"/>
    <path d="M1270.49,511.52l-20.97,14.98c-.6-13.95,9.74-12.74,20.97-14.98Z"/>
    <path d="M1390.51,501c3.05,11.23-13.3,12.96-10.51,0h10.51Z"/>
    <polygon points="1393.49 535.51 1393.53 546.62 1389.75 547.53 1384.52 534 1393.49 535.51"/>
    <path d="M1221.01,458.99l-.03,10.51-8.97-1.51c-3.43-3.57,1.14-12.83,9-9Z"/>
    <path d="M1318.5,580.51l-8.38-1.43c-1.92-13.96,10.89-11.99,8.38,1.43Z"/>
    <path d="M1375.51,427.5c-4.48,4.47-12.72-2.67-9-10.49,5.53-1.44,12.42,7.08,9,10.49Z"/>
    <path d="M1181.99,475.51c1.25,6.7-2.24,11.34-8.98,11.98l.74-9,8.24-2.99Z"/>
    <path d="M1305.01,500.99c3.96,3.89-3.74,14.77-8.9,8.91-4.94-5.62,4.82-12.93,8.9-8.91Z"/>
    <path d="M1305.01,473.99c4.6,4.6-4.41,13.62-9.02,9.02-4.6-4.6,4.41-13.62,9.02-9.02Z"/>
    <path d="M1195.51,443.99c4.45,4.4-2.65,12.76-10.5,9-.82-5.13,6.63-12.82,10.5-9Z"/>
    <path d="M1318.51,473.99c4.6,4.6-4.41,13.62-9.02,9.02-4.6-4.6,4.41-13.62,9.02-9.02Z"/>
    <path d="M1193.99,472.51l-1.72,10.27-7.28.22c-1.15-7.04,1.74-10.68,9-10.49Z"/>
    <polygon points="1363.49 630.02 1361.28 633.01 1348.52 634.51 1347.01 627.01 1363.49 630.02"/>
    <path d="M1323,571.5l8.35,1.39c4.05,13.63-10.89,9.59-8.35-1.39Z"/>
    <path d="M1345.51,622.5c-4.66,4.61-13.59-4.4-9.01-9.01,3.97-3.99,12.99,5.08,9.01,9.01Z"/>
    <path d="M1306.51,569.99c1.88,1.88.37,14.21-7.6,8.35-7.22-5.3,3.85-12.11,7.6-8.35Z"/>
    <rect x="1325.99" y="626.99" width="7.52" height="10.52"/>
    <path d="M1168.49,483.01c2.26,8.88-3.91,10.53-8.97,16.49-2.7-6.67,2.7-13.7,8.97-16.49Z"/>
    <rect x="1226.99" y="430.49" width="7.52" height="10.52"/>
    <path d="M1338.01,637.49l.25-9.49c3.59-9.55,14.87,8.06-.25,9.49Z"/>
    <path d="M1234.5,474.01c.36.27.36,8.7,0,8.97-6.11,4.66-12.92-5.02-9-9,.32-.32,8.65-.25,9,.02Z"/>
    <polygon points="1278.01 495.01 1267.49 494.99 1267.72 489.22 1277.98 486 1278.01 495.01"/>
    <path d="M1291.27,555.23c6.66,4.02-2.37,13.7-7.27,8.78-1.66-1.67-.77-13.64,7.27-8.78Z"/>
    <path d="M1375.51,398.99c-.51.49-7.14-.29-9.01.02-3.5-18.39,13.28-4.13,9.01-.02Z"/>
    <path d="M1333.5,546.02l-1.58,7.39c-14.17,2.83-12.58-10.87,1.58-7.39Z"/>
    <path d="M1306.51,591c-9.28,1.43-7.32-1.33-9-8.99l7.59.64,1.41,8.34Z"/>
    <path d="M1292.99,577.49c-2.34,2.38-10.13-2.94-8.99-6.7,2.29-7.56,13.54,2.06,8.99,6.7Z"/>
    <path d="M1318.51,545.99c3.9,3.93-3.63,12.22-8.35,6.1-5.56-7.21,7.22-7.24,8.35-6.1Z"/>
    <path d="M1180.49,444.01c3.03,3.43-1.79,13.78-7.4,8.89-6.21-5.43,5.25-11.32,7.4-8.89Z"/>
    <path d="M1321.49,630.01l-.09,7.4-11.89,1.58c-1.2-4.07,11.42-9.7,11.98-8.98Z"/>
    <path d="M1318.51,584.99c1.14,1.13,1.1,13.91-6.1,8.35-6.12-4.72,2.18-12.25,6.1-8.35Z"/>
    <rect x="1267.49" y="474.01" width="10.51" height="5.98"/>
    <path d="M1333.49,608.99l-8.33-1.4-.65-7.59c.95-1.18,11.41,4.95,8.98,8.98Z"/>
    <polygon points="1343.7 649.15 1340.25 650.96 1337.91 647.23 1338.75 641.99 1343.26 639.04 1343.7 649.15"/>
    <path d="M1333.51,640.49c3.86,3.86-3.66,11.37-7.52,7.52-3.86-3.86,3.66-11.37,7.52-7.52Z"/>
    <path d="M1306.51,546.01v5.98c-4.35.48-7.86.09-10.47-3.74l10.47-2.24Z"/>
    <path d="M1150.5,564.75c-.09.73-1.35,5.76-2.98,5.24,0-8.86.5-18.46,2.98-26.99-.62,6.91.86,15.02,0,21.75Z"/>
    <path d="M1387.13,451.8c3.74,6.48-10.35,7.21-8.62-4.79l8.62,4.79Z"/>
    <polygon points="1323.01 642.01 1320.77 647.95 1311 644.98 1313.81 641.36 1323.01 642.01"/>
    <path d="M1236.02,520.5c-2.9-3.06,9.55-11.37,11.97-12,2.21,2.22-11.09,12.93-11.97,12Z"/>
    <polygon points="643.49 879.01 634.52 889.5 634.86 882.34 643.49 879.01"/>
    <path d="M1153.49,393.01l.02,5.98h-9c-1.71-3.74,8.26-6.81,8.98-5.98Z"/>
    <path d="M1292.99,581.99v7.5c-3.2-2.46-.16-3.86-5.98-1.5v-5.99s5.98-.02,5.98-.02Z"/>
    <polygon points="1387.49 401.99 1380.25 400.27 1380.02 394.5 1387.49 401.99"/>
    <path d="M1391.72,528.28l1.78,4.2-10.51-1.49c-1.29-5.03,5.81-2.9,8.72-2.71Z"/>
    <path d="M1272,588.02l-12,7.47c-1.59-1.55,9.82-8.08,12-7.47Z"/>
    <path d="M1262.99,501.02c-2.9,3.45-9.05,6.64-13.49,7.47l5.2-4.53,8.29-2.93Z"/>
    <path d="M1385.99,428.99c-4.33-.22-8.83-.35-7.48-5.98,1.03-1.05,8.76,2.66,7.48,5.98Z"/>
    <path d="M1291.49,636.01l-.71,6.02-5.28,1.45c2.15-2.38,1.56-8.51,5.99-7.47Z"/>
    <polygon points="1168.49 447.01 1167.04 452.29 1161 452.98 1168.49 447.01"/>
    <polygon points="1279.48 601.49 1276.71 596.42 1282.48 592.5 1279.48 601.49"/>
    <polygon points="1306.49 631.47 1297.51 635.99 1305.77 628.52 1306.49 631.47"/>
    <polygon points="1358.99 579.02 1350.9 580.53 1350.01 576.01 1358.99 579.02"/>
    <path d="M1354.48,624l-5.84-1.65-.14-4.34c2.63-1.12,7.42,4.68,5.97,5.99Z"/>
    <polygon points="1282.49 585.01 1282.49 589.49 1276.5 589.48 1282.49 585.01"/>
    <path d="M1151.98,456c-4.55-1.57-2.46-5.47-1.46-8.99l1.46,8.99Z"/>
    <path d="M1154.98,566.99l-1.46-8.99c4.58,1.42,1.66,5.53,1.46,8.99Z"/>
    <path d="M1305,639.02c-1.19,3.11-4.15,5.03-7.49,4.46l7.49-4.46Z"/>
    <polygon points="1387.49 480.02 1380.01 481.49 1380.01 478.51 1387.49 480.02"/>
    <path d="M1293,549.02c-1.33,4.18-4.29,2.37-7.49,1.46l7.49-1.46Z"/>
    <polygon points="1342.49 609.02 1336.51 610.49 1336.51 607.51 1342.49 609.02"/>
    <path d="M467.62,210.45c3.08,1.37,6.53,9.94,7.88,13.04l-13.49-12.74c.74-1.57,4.26-.9,5.61-.3Z"/>
    <path d="M464.99,232.49l-8.96-3.74c2.48-5.4,11.01,1.9,8.96,3.74Z"/>
  </g>
</svg>